<?xml version="1.0" encoding="utf-8"?>
<!-- Generator: Adobe Illustrator 27.5.0, SVG Export Plug-In . SVG Version: 6.00 Build 0)  -->
<svg version="1.1" xmlns="http://www.w3.org/2000/svg" xmlns:xlink="http://www.w3.org/1999/xlink" x="0px" y="0px"
	 viewBox="0 0 750 500" style="enable-background:new 0 0 750 500;" xml:space="preserve">
<g id="BACKGROUND">
	<rect style="fill:#FFFFFF;" width="750" height="500"/>
</g>
<g id="OBJECTS">
	<g>
		<g style="opacity:0.1;">
			<g>
				<path style="fill:#005586;" d="M329.681,415.954c-45.192,8.325-74.432-20.197-141.119-32.438
					c-24.991-4.587-50.487-11.02-70.807-26.275c-17.921-13.454-38.136-52.017-26.8-82.906
					c17.838-48.609,115.862-87.526,145.56-119.798s52.091-90.662,101.496-91.583c49.405-0.921,76.165,39.801,101.056,56.213
					c20.373,13.433,47.293,11.258,70.78,4.636c23.487-6.622,70.352-23.736,104.993-2.203c30.579,19.008,24.169,61.456,12.397,80.165
					c-23.141,36.777-48.76,50.826-49.173,71.901c-0.579,29.519,17.355,36.364,33.471,69.835
					c10.617,22.052,2.479,55.785-17.355,73.141c-19.835,17.355-57.025,19.008-83.319,7.055
					c-19.828-9.014-63.669-31.603-85.444-32.123C403.144,391.042,374.873,407.629,329.681,415.954z"/>
			</g>
			<g>
				<circle style="fill:#005586;" cx="425.717" cy="97.469" r="29.894"/>
				<path style="fill:#005586;" d="M490.487,100.458c0,3.852-3.123,6.975-6.975,6.975c-3.852,0-6.975-3.123-6.975-6.975
					c0-3.852,3.123-6.975,6.975-6.975C487.364,93.483,490.487,96.606,490.487,100.458z"/>
				<circle style="fill:#005586;" cx="638.959" cy="185.656" r="7.972"/>
				<circle style="fill:#005586;" cx="646.184" cy="172.951" r="1.744"/>
				
					<ellipse transform="matrix(0.2308 -0.973 0.973 0.2308 123.1601 874.4776)" style="fill:#005586;" cx="614.672" cy="359.342" rx="10.694" ry="10.694"/>
				<path style="fill:#005586;" d="M630.072,337.74c0,1.772-1.436,3.208-3.208,3.208c-1.772,0-3.208-1.436-3.208-3.208
					c0-1.772,1.436-3.208,3.208-3.208C628.635,334.531,630.072,335.968,630.072,337.74z"/>
				<path style="fill:#005586;" d="M654.455,362.551c0,2.717-2.203,4.919-4.919,4.919c-2.717,0-4.919-2.202-4.919-4.919
					c0-2.717,2.202-4.919,4.919-4.919C652.252,357.631,654.455,359.834,654.455,362.551z"/>
				<circle style="fill:#005586;" cx="228.823" cy="156.151" r="11.122"/>
				<circle style="fill:#005586;" cx="228.181" cy="131.126" r="3.208"/>
				<path style="fill:#005586;" d="M257.483,120.218c0,1.654-1.341,2.994-2.994,2.994c-1.654,0-2.994-1.341-2.994-2.994
					c0-1.654,1.341-2.994,2.994-2.994C256.143,117.224,257.483,118.564,257.483,120.218z"/>
				
					<ellipse transform="matrix(0.2298 -0.9732 0.9732 0.2298 -173.1355 292.0218)" style="fill:#005586;" cx="97.925" cy="255.394" rx="13.689" ry="13.689"/>
				<path style="fill:#005586;" d="M73.114,281.702c0,1.536-1.245,2.78-2.78,2.78c-1.536,0-2.781-1.245-2.781-2.78
					c0-1.536,1.245-2.781,2.781-2.781C71.869,278.921,73.114,280.166,73.114,281.702z"/>
				<circle style="fill:#005586;" cx="94.503" cy="337.526" r="5.989"/>
			</g>
		</g>
		<g style="opacity:0.15;">
			
				<line style="fill:none;stroke:#008DA3;stroke-width:0.7285;stroke-linecap:round;stroke-miterlimit:10;" x1="125.232" y1="399.379" x2="631.979" y2="399.379"/>
			
				<line style="fill:none;stroke:#008DA3;stroke-width:0.7285;stroke-linecap:round;stroke-miterlimit:10;" x1="125.232" y1="341.538" x2="631.979" y2="341.538"/>
			
				<line style="fill:none;stroke:#008DA3;stroke-width:0.7285;stroke-linecap:round;stroke-miterlimit:10;" x1="125.232" y1="283.697" x2="631.979" y2="283.697"/>
			
				<line style="fill:none;stroke:#008DA3;stroke-width:0.7285;stroke-linecap:round;stroke-miterlimit:10;" x1="125.232" y1="225.857" x2="631.979" y2="225.857"/>
			
				<line style="fill:none;stroke:#008DA3;stroke-width:0.7285;stroke-linecap:round;stroke-miterlimit:10;" x1="125.232" y1="168.016" x2="631.979" y2="168.016"/>
		</g>
		<rect x="148.55" y="194.894" style="fill:#0090D0;" width="45.947" height="245.593"/>
		<rect x="204.413" y="263.705" style="fill:#006EA9;" width="45.947" height="176.783"/>
		<rect x="258.043" y="343.228" style="fill:#005586;" width="45.947" height="97.259"/>
		<rect x="314.214" y="410.842" style="fill:#004D6E;" width="45.947" height="29.645"/>
		<rect x="370.485" y="372.588" style="fill:#005586;" width="45.946" height="67.899"/>
		<rect x="426.335" y="327.131" style="fill:#006EA9;" width="45.947" height="113.357"/>
		<rect x="483.184" y="266.711" style="fill:#0090D0;" width="45.947" height="173.776"/>
		<rect x="540.283" y="218.111" style="fill:#00B2E6;" width="45.947" height="222.376"/>
		<g>
			<circle style="fill:#00344A;" cx="335.642" cy="382.429" r="24.72"/>
			<path style="fill:#559BBA;" d="M348.709,377.613c-0.261-0.597-0.956-0.869-1.553-0.608c-0.517,0.226-0.79,0.778-0.684,1.31
				l-4.587,1.798c-0.306-0.69-0.717-1.324-1.213-1.879l1.444-1.563c0.196,0.126,0.46,0.103,0.631-0.069
				c0.198-0.198,0.197-0.519-0.001-0.717c-0.198-0.198-0.519-0.197-0.717,0.001c-0.171,0.172-0.193,0.436-0.067,0.632l-1.55,1.439
				c-0.692-0.697-1.526-1.252-2.455-1.621l1.306-3.255c0.349,0.073,0.714-0.104,0.866-0.443c0.175-0.391-0.001-0.851-0.392-1.025
				c-0.392-0.175-0.851,0.001-1.026,0.392c-0.151,0.339-0.039,0.729,0.248,0.94l-1.574,3.19c-0.521-0.157-1.067-0.257-1.631-0.292
				l-0.199-5.175c0.53-0.116,0.926-0.587,0.926-1.151c0-0.651-0.528-1.179-1.179-1.179c-0.651,0-1.179,0.528-1.179,1.179
				c0,0.564,0.397,1.036,0.926,1.151l-0.199,5.175c-0.71,0.044-1.392,0.189-2.031,0.424l-1.108-1.955
				c0.275-0.228,0.365-0.623,0.194-0.953c-0.197-0.381-0.665-0.53-1.046-0.333c-0.381,0.197-0.53,0.665-0.333,1.046
				c0.171,0.33,0.545,0.485,0.89,0.393l0.936,1.995c-0.843,0.379-1.599,0.915-2.232,1.572l-3.461-3.562
				c0.316-0.44,0.296-1.056-0.081-1.476c-0.436-0.484-1.181-0.524-1.665-0.088c-0.484,0.436-0.524,1.181-0.088,1.666
				c0.378,0.42,0.988,0.504,1.459,0.236l3.253,3.908c-0.593,0.791-1.024,1.709-1.251,2.705l-1.751-0.405
				c0.012-0.233-0.139-0.451-0.373-0.514c-0.27-0.074-0.549,0.086-0.622,0.356c-0.074,0.27,0.086,0.549,0.356,0.622
				c0.234,0.064,0.474-0.048,0.582-0.255l1.738,0.545c-0.072,0.409-0.112,0.829-0.112,1.258c0,0.492,0.05,0.972,0.144,1.436
				l-4.447,1.811c-0.29-0.458-0.868-0.671-1.399-0.478c-0.612,0.222-0.928,0.899-0.706,1.511c0.222,0.612,0.899,0.928,1.511,0.706
				c0.531-0.193,0.838-0.726,0.766-1.264l4.502-1.441c0.233,0.698,0.569,1.348,0.992,1.932l-2.589,1.954
				c-0.262-0.242-0.665-0.28-0.97-0.068c-0.352,0.245-0.439,0.729-0.194,1.081s0.729,0.438,1.081,0.193
				c0.305-0.212,0.41-0.604,0.273-0.933l2.76-1.768c0.629,0.737,1.403,1.345,2.279,1.78l-0.777,1.585
				c-0.224-0.064-0.47,0.033-0.585,0.247c-0.133,0.247-0.041,0.554,0.206,0.687c0.247,0.133,0.554,0.041,0.687-0.206
				c0.115-0.214,0.061-0.473-0.116-0.624l0.906-1.538c0.501,0.219,1.032,0.381,1.584,0.481l0.018,4.799
				c-0.533,0.097-0.946,0.555-0.966,1.119c-0.023,0.651,0.487,1.197,1.138,1.22c0.651,0.023,1.197-0.487,1.22-1.138
				c0.02-0.564-0.361-1.049-0.886-1.183l0.345-4.712c0.14,0.008,0.282,0.013,0.424,0.013c0.523,0,1.033-0.057,1.525-0.163
				l0.422,2.217c-0.218,0.083-0.356,0.309-0.32,0.549c0.042,0.277,0.3,0.467,0.577,0.426c0.277-0.042,0.467-0.3,0.426-0.577
				c-0.036-0.24-0.235-0.414-0.468-0.43l-0.255-2.278c1.084-0.297,2.065-0.84,2.881-1.567l1.802,2.032
				c-0.221,0.28-0.227,0.685,0.009,0.972c0.272,0.332,0.761,0.38,1.093,0.108c0.332-0.272,0.38-0.761,0.108-1.093
				c-0.236-0.287-0.634-0.361-0.952-0.199l-1.667-2.199c0.867-0.898,1.502-2.02,1.81-3.272l3.23,0.596
				c-0.002,0.357,0.243,0.68,0.605,0.761c0.418,0.094,0.834-0.169,0.928-0.587c0.094-0.418-0.169-0.834-0.587-0.928
				c-0.363-0.081-0.722,0.106-0.873,0.429l-3.187-0.845c0.061-0.375,0.093-0.76,0.093-1.153c0-0.725-0.108-1.424-0.307-2.084
				l4.48-2.167c0.318,0.439,0.909,0.614,1.426,0.388C348.697,378.906,348.97,378.21,348.709,377.613z"/>
			<g>
				<circle style="fill:none;stroke:#FF3157;stroke-width:1.9688;stroke-miterlimit:10;" cx="335.642" cy="382.429" r="21.151"/>
				
					<line style="fill:none;stroke:#FF3157;stroke-width:1.9688;stroke-miterlimit:10;" x1="320.892" y1="397.931" x2="350.53" y2="368.294"/>
			</g>
		</g>
		<g>
			<g>
				<path style="fill:#4CA8AF;" d="M420.135,183.622c3.073,0.046,26.209-12.188,42.296-21.79
					c-2.613-7.617-8.173-11.808-8.173-11.808s-46.916,18.708-49.872,21.132C401.429,173.581,420.135,183.622,420.135,183.622z"/>
				<path style="fill:#E8C0A8;" d="M506.748,126.822c2.594-1.324,1.536,0.952,0.205,2.302c-1.33,1.35-6.04,4.316-6.04,4.316
					s1.29,0.651,3.472,2.488c0.997,0.84,2.131,7.902-11.351,7.319c-5.931-0.256-5.165-5.963-5.165-5.963
					S504.154,128.146,506.748,126.822z"/>
				<path style="fill:#4CA8AF;" d="M450.127,158.373c2.195,5.769,7.88,6.467,12.902,3.133c5.023-3.335,31.574-18.171,31.574-18.171
					c-0.239-2.365-2.002-6.238-4.195-7.794c0,0-28.132,10.823-34.07,13.368C450.534,151.396,448.571,154.283,450.127,158.373z"/>
			</g>
			<g>
				<g>
					<path style="fill:#2D2A25;" d="M453.724,318.143c0,0-7.68-3.702-9.036-6.389c0,0-4.254,0.006-5.448,4.244
						c0,0-5.821,1.012-8.765-2.421l-0.711,11l34.918-0.017C463.72,322.027,462.954,319.286,453.724,318.143z"/>
					<path style="fill:#EFEDED;" d="M429.763,324.577l-0.183,2.535l35.283-0.017c0.04-1.014,0.269-1.521-0.182-2.535
						L429.763,324.577z"/>
				</g>
			</g>
			<g>
				<g>
					<path style="fill:#2D2A25;" d="M391.469,368.381l-1.724-6.711c0,0-1.619-4.604-6.605-4.604c-4.986,0-6.604,4.604-6.604,4.604
						l-1.23,8.766l2.869-0.154L391.469,368.381z"/>
				</g>
				<g>
					<path style="fill:#EAE7E4;" d="M395.26,370.246c0.091,0.508,0.113,1.429-0.505,2.365h-16.581c0,0-0.034-1.027,0-2.404
						L395.26,370.246z"/>
					<path style="fill:#2D2A25;" d="M378.179,370.113c0.086-1.459,3.151-5.901,8.283-5.901c6.568,0,8.076,3.722,8.681,5.648
						c0,0,0.068,0.161,0.116,0.434l-17.086-0.014C378.175,370.225,378.176,370.17,378.179,370.113z"/>
				</g>
			</g>
			<path style="fill:#00283E;" d="M426.531,243.123l0.624,21.698l-18.147,4.499l-17.735,91.142c0,0-6.552,2.946-16.225-0.62
				l9.819-116.719H426.531z"/>
			<path style="fill:#00283E;" d="M401.686,265.497c0,0,41.161,9.507,47.171,10.872c8.405,1.91,19.542-10.661,10.876-14.31
				c-18.126-7.632-33.026-12.632-33.026-12.632l-21.987,6.664C404.72,256.091,402.491,259.786,401.686,265.497z"/>
			<g>
				<path style="fill:#333232;" d="M399.347,314.8H348.77c-1.236,0-2.238-1.002-2.238-2.238v-28.926h55.053v28.927
					C401.585,313.798,400.583,314.8,399.347,314.8z"/>
				<path style="fill:#1D1D1B;" d="M399.064,291.044h-50.012c-1.392,0-2.521-1.129-2.521-2.521v-12.686
					c0-1.392,1.129-2.521,2.521-2.521h50.012c1.392,0,2.521,1.128,2.521,2.521v12.686
					C401.585,289.916,400.456,291.044,399.064,291.044z"/>
				<path style="fill:#454444;" d="M399.064,289.966h-50.012c-1.392,0-2.521-1.129-2.521-2.521V274.76
					c0-1.392,1.129-2.521,2.521-2.521h50.012c1.392,0,2.521,1.129,2.521,2.521v12.686
					C401.585,288.838,400.456,289.966,399.064,289.966z"/>
				<path style="fill:#454444;" d="M374.059,284.056c-5.445,0-9.874-4.43-9.874-9.875c0-5.445,4.43-9.874,9.874-9.874
					c5.444,0,9.874,4.43,9.874,9.874C383.933,279.627,379.503,284.056,374.059,284.056z M374.059,267.481
					c-3.695,0-6.701,3.006-6.701,6.701c0,3.695,3.006,6.701,6.701,6.701c3.695,0,6.701-3.006,6.701-6.701
					C380.76,270.487,377.754,267.481,374.059,267.481z"/>
				<path style="fill:#6B686C;" d="M377.014,293.753h-6.267c-0.305,0-0.552-0.247-0.552-0.552v-4.018
					c0-0.305,0.247-0.552,0.552-0.552h6.267c0.305,0,0.552,0.247,0.552,0.552v4.017
					C377.566,293.506,377.319,293.753,377.014,293.753z"/>
				<path style="fill:#454444;" d="M400.556,297.667c0,0,0,11.989,0,13.358c0,1.368-0.985,3.175-3.668,3.175s-15.383,0-15.383,0
					s13.796-0.712,14.836-0.876c1.04-0.164,2.847-0.876,3.065-2.628C399.625,308.944,400.556,297.667,400.556,297.667z"/>
			</g>
			<g>
				<path style="fill:#E8C0A8;" d="M407.059,165.086l0.191,7.719l-11.508,0.351l-0.249-10.042
					C400.33,165.551,405.099,165.348,407.059,165.086z"/>
				<path style="fill:#CF9F82;" d="M395.494,163.114l-0.191-7.736l11.508-0.352l0.249,10.059
					C405.099,165.348,400.33,165.551,395.494,163.114z"/>
			</g>
			<path style="fill:#E8C0A8;" d="M402.314,174.553c-6.813,0-8.446-4.199-8.681-5.512c4.838-1.082,9.628-1.518,15.584-0.624
				C409.353,169.941,409.004,174.553,402.314,174.553z"/>
			<path style="fill:#7DC1C1;" d="M392.453,168.786c0.37-0.132,4.097-0.305,4.474-0.381c0.261,1.313,4.355,4.611,7.169,4.664
				c4.578,0.086,4.384-3.225,4.232-4.75c0.551,0.074,1.091-0.286,1.61-0.017c2.155,1.116,8.05,7.25,11.526,20.5
				c2.748,10.477,6.019,35.692,6.144,60.219c0,0-15.9,6.885-44.82,1.369c0,0,0.091-59.823,0.611-66.421
				C383.919,177.371,386.819,170.803,392.453,168.786z"/>
			<path style="fill:#00545C;" d="M402.437,176.932l2.816,1.735l6.782,55.734l4.171,7.329c0,0,3.729-6.603,3.504-8.396
				c-0.224-1.793-10.256-51.712-12.001-55.027c0.665-1.205,1.31-2.554,1.31-2.554s-2.997-4.18-3.942-4.111
				C404.132,171.711,402.437,176.932,402.437,176.932z"/>
			<g>
				<path style="fill:#E8C0A8;" d="M376.423,256.333L376.423,256.333c0,0,1.99,0.95,2.783,2.291
					c0.794,1.342,1.473,2.998,1.873,4.394c0.815,2.845,0.891,5.592,1.055,6.121c0.164,0.528-0.566,1.327-1.358,1.063
					c-0.792-0.264-1.279-3.149-1.423-3.784c-0.245-1.081-0.218-2.187-0.635-1.804c-0.416,0.383-0.346,2.254-0.513,3.447
					c-0.042,0.297-0.114,0.827-0.151,1.034c-0.215,1.217-0.477,1.098-1.313,0.978c-0.606-0.087-1.013-0.216-0.907-1.042
					c0.032-0.247,0.132-0.525,0.087-0.722c-0.072,0.268-0.135,0.602-0.309,0.994c-0.361,0.814-2.217,0.875-2.261-0.365
					c-0.046-0.599-0.037-1.115-0.043-1.008c-0.016,0.294-0.103,0.6-0.206,1.213c-0.133,0.797-2.056,1.178-2.101-0.146
					c-0.029-0.861,0.079-1.633,0.05-1.854c-0.152,0.527-0.138,1.186-0.208,1.603c-0.118,0.712-0.139,1.084-0.625,1.126
					c-0.485,0.042-1.056,0.069-1.056-0.306c-0.389-2.377-0.065-6.035,0.027-7.106c0.091-1.071,1.082-3.802,1.36-4.493
					c0.028-0.341,0.039-0.486,0.026-0.86c-0.028-0.795,0.38-1.081,1.202-1.278l2.634-0.631
					C375.309,254.983,376.209,255.491,376.423,256.333z"/>
				<path style="fill:#4CA8AF;" d="M379.206,258.624c0.375-1.461,5.438-38.175,5.957-41.54c0.519-3.365,6.217-23.086,8.715-31.707
					c1.793-6.19,0.233-13.359-5.212-14.323c-6.07-1.075-10.58,4.413-12.03,11.987c-0.83,4.332-6.219,30.247-6.41,33.307
					c-0.191,3.059-0.406,38.303-0.63,41.789C369.684,259.107,379.004,259.409,379.206,258.624z"/>
			</g>
			<path style="fill:#4CA8AF;" d="M395.591,166.933c-1.256,0.343-2.001,1.559-2.001,1.559s2.544,7.467,7.88,11.488
				c2.088-3.248,3.828-8.507,3.828-8.507S398.762,169.988,395.591,166.933z"/>
			<path style="fill:#4CA8AF;" d="M405.001,171.709l4.633,5.858c0,0,2.214-5.151,0.304-9.265c-0.696-0.348-2.862-1.67-2.862-1.67
				S406.792,170.452,405.001,171.709z"/>
			<g>
				<path style="fill:#E8C0A8;" d="M393.957,160.874c0,0,26.721,4.205,30.295-3.39c0.541-1.144-0.173-8.75-0.972-14.16
					c-1.18-7.991-3.971-17.933-8.301-23.531c-7.156-9.249-25.205-18.742-33.764-11.088
					C372.658,116.357,355.909,139.511,393.957,160.874z"/>
				<path style="fill:#E8C0A8;" d="M414.519,130.24c-0.022-0.004-0.031-0.005-0.059-0.008l-0.018-1.533
					c4.007,1.952,8.148,2.812,12.073,3.925c-3.658,8.455-12.086,5.674-13.636-2.134C413.488,130.253,414.149,130.23,414.519,130.24
					C414.958,130.296,414.877,130.25,414.519,130.24z"/>
				<path style="fill:#D0904B;" d="M403.5,109.874l1.416,0.534C404.594,110.463,404.091,110.237,403.5,109.874z"/>
				<path style="fill:#003C48;" d="M392.386,144.003c1.16,5.387,4.161,16.094,1.213,19.318c-6.628-2.357-15.043-6.508-20.476-11.101
					c-5.29-4.469-8.993-15.992-7.921-26.156s6.824-14.336,11.093-16.444c3.449-1.702,10.565-4.499,15.592-4.221
					c2.317,0.129,4.801,0.577,6.977,1.316c1.26,0.428,3.438,2.341,4.99,3.292l-0.701-0.263c-1.935,3.481-11.194,1.865-11.769,5.909
					c-0.67,4.686,6.888,14.733,6.838,19.435C398.181,139.105,392.793,138.762,392.386,144.003z"/>
				<path style="fill:#E8C0A8;" d="M390.039,142.303c2.445,2.896,7.531,4.915,9.434,3.309c1.903-1.608,1.465-5.256-0.978-8.152
					c-2.444-2.893-6.683-6.054-9.091-3.776C387.596,135.395,387.597,139.408,390.039,142.303z"/>
				<path style="fill:#003C48;" d="M380.783,107.904c-2.381,0.826-2.048,1.618,0.302,3.444c1.57,1.221,8.028,6.609,9.705,5.398
					l1.032,0.773c3.086-0.352,6.787-1.603,9.711-2.676c1.641-0.602,4.953-1.565,6.424-2.697c3.545-2.727,5.24-14.97,0.908-16.298
					c-4.333-1.328-5.496,3.548-5.496,3.548s2.84-5.896-2.31-6.342c-5.15-0.446-5.138,6.756-5.138,6.756s0.223-1.357-0.837-1.343
					c-1.06,0.014-0.159,1.602-1.63,2.93C388.744,105.649,384.466,106.628,380.783,107.904z"/>
				<g>
					
						<linearGradient id="SVGID_1_" gradientUnits="userSpaceOnUse" x1="-13740.2178" y1="-3309.0464" x2="-13739.1514" y2="-3302.2764" gradientTransform="matrix(0.9421 -0.3353 0.3353 0.9421 14464.8496 -1364.8024)">
						<stop  offset="0" style="stop-color:#C9926A"/>
						<stop  offset="1" style="stop-color:#C9926A;stop-opacity:0"/>
					</linearGradient>
					<path style="fill:url(#SVGID_1_);" d="M413.684,122.602c0.868,1.41,3.879,6.542-0.182,8.773
						c-4.061,2.231-5.751-4.856-5.751-4.856S411.845,123.657,413.684,122.602z"/>
					<path style="fill:#003C48;" d="M412.555,122.685c-4.608,1.899-6.885,5.602-2.762,3.587
						C413.916,124.258,414.961,121.693,412.555,122.685z"/>
					<path style="fill:none;stroke:#4B2B19;stroke-width:0.801;stroke-miterlimit:10;" d="M411.949,131.496
						c0.156-2.945,3.209-3.194,4.031-1.1"/>
				</g>
				<g>
					<path style="fill:#A56052;" d="M410.161,145.862c-0.186,0.952,0.318,1.857,0.896,2.524c0.607,0.676,1.423,1.131,2.309,1.35
						c0.888,0.222,1.822,0.253,2.762,0.209c0.47-0.022,0.939-0.105,1.414-0.153c0.47-0.079,0.939-0.179,1.422-0.243
						c-0.443,0.192-0.901,0.349-1.357,0.526c-0.473,0.108-0.944,0.244-1.428,0.323c-0.97,0.156-1.98,0.145-2.964-0.089
						c-0.973-0.253-1.916-0.8-2.51-1.636c-0.308-0.406-0.515-0.876-0.654-1.355C409.964,146.833,409.913,146.295,410.161,145.862z"
						/>
				</g>
			</g>
			<polygon style="fill:#CDCAC8;" points="375.305,370.435 375.305,372.596 378.174,372.611 378.174,370.281 			"/>
			<path style="fill:#00283E;" d="M441.687,273.595c0,0-7.013,23.633-11.878,42.292c6.474,3.642,17.433,2.04,19.179-1.079
				c6.34-21.903,14.411-46.793,13.93-48.129C461.506,262.755,441.687,273.595,441.687,273.595z"/>
		</g>
		<g>
			<g>
				
					<path style="fill:none;stroke:#00425C;stroke-width:0.75;stroke-linecap:round;stroke-miterlimit:10;stroke-dasharray:7.064,7.064;" d="
					M138.995,173.809c16.838,0,44.453-7.409,96.989,49.168c49.111,52.889,73.081,109.897,98.399,117.106"/>
				<g>
					<polygon style="fill:#00425C;" points="332.697,343.445 339.709,340.847 333.954,336.072 					"/>
				</g>
			</g>
		</g>
		<g>
			<g>
				
					<line style="fill:none;stroke:#00425C;stroke-width:0.75;stroke-linecap:round;stroke-miterlimit:10;stroke-dasharray:7.064,7.064;" x1="470.811" y1="271.159" x2="569.919" y2="175.663"/>
				<g>
					<polygon style="fill:#00425C;" points="571.726,179.115 573.794,171.928 566.536,173.729 					"/>
				</g>
			</g>
		</g>
		<g>
			<polyline style="fill:none;stroke:#004D6E;stroke-miterlimit:10;" points="125.372,130.869 125.372,440.257 639.78,440.257 			
				"/>
			<path style="fill:#004D6E;" d="M645.251,440.46c0,1.871-1.517,3.388-3.388,3.388c-1.871,0-3.388-1.517-3.388-3.388
				c0-1.871,1.517-3.388,3.388-3.388C643.734,437.072,645.251,438.589,645.251,440.46z"/>
			<circle style="fill:#004D6E;" cx="125.498" cy="130.777" r="3.388"/>
		</g>
		<polygon style="fill:#006EA9;" points="620.158,247.677 603.504,247.677 608.365,252.538 597.805,263.098 604.737,270.03 
			615.297,259.47 620.158,264.331 		"/>
		<polygon style="fill:#00B2E6;" points="499.685,203.516 482.161,203.516 487.276,208.63 476.163,219.743 483.458,227.037 
			494.57,215.925 499.685,221.04 		"/>
		<polygon style="fill:#00B2E6;" points="569.985,134.222 557.96,134.222 561.47,137.732 537.746,161.456 542.752,166.462 
			566.475,142.738 569.985,146.248 		"/>
		<polygon style="fill:#005586;" points="608.332,131.812 600.524,131.812 602.803,134.091 587.401,149.493 590.651,152.743 
			606.053,137.341 608.332,139.62 		"/>
		<polygon style="fill:#0090D0;" points="532.301,191.281 528.22,191.281 529.411,192.472 523.011,198.872 524.71,200.57 
			531.11,194.17 532.301,195.361 		"/>
		<polygon style="fill:#0090D0;" points="624.897,209.999 620.817,209.999 622.008,211.19 615.608,217.59 617.306,219.289 
			623.706,212.889 624.897,214.08 		"/>
		<g>
			<path style="fill:none;stroke:#00B2E6;stroke-miterlimit:10;" d="M468.403,116.3c0,2.122-1.72,3.842-3.842,3.842
				c-2.122,0-3.842-1.72-3.842-3.842c0-2.122,1.72-3.842,3.842-3.842C466.683,112.458,468.403,114.178,468.403,116.3z"/>
			<circle style="fill:none;stroke:#00B2E6;stroke-miterlimit:10;" cx="534.813" cy="87.211" r="9.33"/>
			<path style="fill:none;stroke:#00B2E6;stroke-miterlimit:10;" d="M614.945,104.774c0,2.122-1.72,3.842-3.842,3.842
				c-2.122,0-3.842-1.72-3.842-3.842c0-2.122,1.72-3.842,3.842-3.842C613.225,100.933,614.945,102.653,614.945,104.774z"/>
			<circle style="fill:none;stroke:#00B2E6;stroke-miterlimit:10;" cx="663.792" cy="186.553" r="3.293"/>
			<circle style="fill:none;stroke:#00B2E6;stroke-miterlimit:10;" cx="610.005" cy="309.495" r="2.195"/>
			<path style="fill:none;stroke:#00B2E6;stroke-miterlimit:10;" d="M679.709,291.931c0,0-0.246,0-0.549,0c-0.303,0-0.549,0-0.549,0
				s0.246,0,0.549,0C679.463,291.931,679.709,291.931,679.709,291.931z"/>
			<circle style="fill:none;stroke:#00B2E6;stroke-miterlimit:10;" cx="451.388" cy="203.567" r="3.293"/>
			<path style="fill:none;stroke:#00B2E6;stroke-miterlimit:10;" d="M342.717,186.004c0,1.819-1.474,3.293-3.293,3.293
				c-1.819,0-3.293-1.474-3.293-3.293c0-1.819,1.474-3.293,3.293-3.293C341.242,182.711,342.717,184.185,342.717,186.004z"/>
			<path style="fill:none;stroke:#00B2E6;stroke-miterlimit:10;" d="M335.033,132.217c0,1.516-1.229,2.744-2.744,2.744
				s-2.744-1.229-2.744-2.744c0-1.516,1.229-2.744,2.744-2.744S335.033,130.701,335.033,132.217z"/>
			<circle style="fill:none;stroke:#00B2E6;stroke-miterlimit:10;" cx="306.218" cy="262.568" r="6.861"/>
			<path style="fill:none;stroke:#00B2E6;stroke-miterlimit:10;" d="M277.404,322.392c0,0.758-0.614,1.372-1.372,1.372
				c-0.758,0-1.372-0.614-1.372-1.372c0-0.758,0.614-1.372,1.372-1.372C276.789,321.02,277.404,321.635,277.404,322.392z"/>
			<path style="fill:none;stroke:#00B2E6;stroke-miterlimit:10;" d="M197.272,149.231c0,0.909-0.737,1.646-1.646,1.646
				c-0.909,0-1.647-0.737-1.647-1.646c0-0.909,0.737-1.647,1.647-1.647C196.535,147.585,197.272,148.322,197.272,149.231z"/>
			<path style="fill:none;stroke:#00B2E6;stroke-miterlimit:10;" d="M248.864,134.687c0,0.758-0.614,1.372-1.372,1.372
				s-1.372-0.614-1.372-1.372c0-0.758,0.614-1.372,1.372-1.372S248.864,133.929,248.864,134.687z"/>
			<path style="fill:none;stroke:#00B2E6;stroke-miterlimit:10;" d="M252.157,82.546c0,2.273-1.843,4.116-4.116,4.116
				s-4.116-1.843-4.116-4.116c0-2.273,1.843-4.116,4.116-4.116S252.157,80.273,252.157,82.546z"/>
			<path style="fill:none;stroke:#00B2E6;stroke-miterlimit:10;" d="M92.991,220.856c0,1.061-0.86,1.921-1.921,1.921
				c-1.061,0-1.921-0.86-1.921-1.921c0-1.061,0.86-1.921,1.921-1.921C92.131,218.935,92.991,219.795,92.991,220.856z"/>
			<path style="fill:none;stroke:#00B2E6;stroke-miterlimit:10;" d="M80.916,307.299c0,1.819-1.474,3.293-3.293,3.293
				c-1.819,0-3.293-1.474-3.293-3.293c0-1.819,1.474-3.293,3.293-3.293C79.442,304.006,80.916,305.48,80.916,307.299z"/>
			<circle style="fill:none;stroke:#00B2E6;stroke-miterlimit:10;" cx="54.297" cy="260.373" r="5.763"/>
			<circle style="fill:none;stroke:#00B2E6;stroke-miterlimit:10;" cx="76.526" cy="407.738" r="1.098"/>
			<path style="fill:none;stroke:#00B2E6;stroke-miterlimit:10;" d="M113.299,395.664c0,2.122-1.72,3.842-3.842,3.842
				c-2.122,0-3.842-1.72-3.842-3.842c0-2.122,1.72-3.842,3.842-3.842C111.578,391.822,113.299,393.542,113.299,395.664z"/>
			
				<ellipse transform="matrix(0.9231 -0.3845 0.3845 0.9231 -51.3427 278.7545)" style="fill:none;stroke:#00B2E6;stroke-miterlimit:10;" cx="671.476" cy="267.782" rx="7.684" ry="7.684"/>
			<path style="fill:none;stroke:#00B2E6;stroke-miterlimit:10;" d="M713.189,232.656c0,0.909-0.737,1.646-1.647,1.646
				c-0.909,0-1.647-0.737-1.647-1.646c0-0.909,0.737-1.647,1.647-1.647C712.451,231.009,713.189,231.747,713.189,232.656z"/>
			<path style="fill:none;stroke:#00B2E6;stroke-miterlimit:10;" d="M712.64,120.691c0,2.425-1.966,4.391-4.391,4.391
				c-2.425,0-4.391-1.966-4.391-4.391c0-2.425,1.966-4.391,4.391-4.391C710.674,116.3,712.64,118.266,712.64,120.691z"/>
			<path style="fill:none;stroke:#00B2E6;stroke-miterlimit:10;" d="M685.746,380.296c0,2.728-2.211,4.94-4.94,4.94
				s-4.94-2.212-4.94-4.94c0-2.728,2.212-4.94,4.94-4.94S685.746,377.568,685.746,380.296z"/>
		</g>
	</g>
</g>
</svg>
