<svg width="80" height="80" viewBox="0 0 80 80" fill="none" xmlns="http://www.w3.org/2000/svg">
<mask id="path-1-inside-1_11_547" fill="white">
<path fill-rule="evenodd" clip-rule="evenodd" d="M55.3525 33.2794C55.4767 33.3627 55.5594 33.4877 55.6008 33.6126L57.918 45.9426C57.9594 46.1093 57.8767 46.3175 57.7525 46.4009C57.587 46.5258 57.4215 46.5258 57.256 46.4425L53.6146 44.3597C53.4491 44.6513 53.1594 45.0679 52.787 45.5261H53.5732C53.8215 45.5261 54.0284 45.7344 54.0284 45.9843C54.0284 46.2342 53.8215 46.4425 53.5732 46.4425H52.0008C50.3042 48.2754 47.4077 50.4414 43.2283 50.4414C41.3662 50.4414 39.38 49.9832 37.3938 49.1085C37.1869 49.0251 37.1042 48.7752 37.1455 48.5669C37.2283 48.317 37.4352 48.192 37.6421 48.2337C37.6421 48.2337 38.3042 48.317 39.2973 48.317C41.1593 48.317 43.849 47.9838 45.9594 46.4009H21.5868C21.3386 46.4009 21.1317 46.1926 21.1317 45.9427C21.1317 45.6927 21.3386 45.4844 21.5868 45.4844H25.5179V38.9445C25.5179 37.9865 26.2627 37.2367 27.2144 37.2367H30.6076C31.5593 37.2367 32.3041 37.9865 32.3041 38.9445V45.4428H34.1662V32.238C34.1662 31.2799 34.911 30.5301 35.8628 30.5301H39.2559C40.2076 30.5301 40.9524 31.2799 40.9524 32.238V45.4844H42.8145V26.6978C42.8145 25.7398 43.5594 24.99 44.5111 24.99H47.9042C48.8559 24.99 49.6008 25.7398 49.6008 26.6978V36.3202L54.9387 33.2794C55.0629 33.2377 55.2284 33.2377 55.3525 33.2794ZM44.5525 25.8647C44.0973 25.8647 43.7249 26.2396 43.7249 26.6978H43.7663V45.4844H46.9939C47.7801 44.6097 48.4421 43.5266 48.8146 42.0687L45.1732 39.6527C45.049 39.5694 44.9663 39.4444 44.9663 39.2778C44.9663 39.1112 45.049 38.9862 45.1732 38.9029L48.7732 36.8618V26.6978C48.7732 26.2396 48.4008 25.8647 47.9456 25.8647H44.5525ZM35.0766 32.238V45.4428H40.1249V32.238C40.1249 31.7798 39.7524 31.4049 39.2973 31.4049H35.9042C35.449 31.4049 35.0766 31.7798 35.0766 32.238ZM53.3249 43.2767C53.4491 43.235 53.5732 43.2767 53.656 43.3183L56.8422 45.1095L54.856 34.3624L46.2076 39.3194L49.518 41.5272C49.6835 41.6105 49.7663 41.8188 49.7249 41.9854C48.3594 47.6505 43.4352 48.9002 40.4559 49.1085C41.4076 49.3167 42.318 49.4417 43.2283 49.4417C49.7249 49.4417 53.0353 43.5266 53.0766 43.485C53.118 43.4017 53.2008 43.3184 53.3249 43.2767ZM26.3869 38.9445V45.4844H31.4352V38.9445C31.4352 38.4863 31.0627 38.1114 30.6076 38.1114H27.2144C26.7593 38.1114 26.3869 38.4863 26.3869 38.9445ZM23.412 23.7607C25.5167 21.642 27.9338 20.0015 30.6633 18.8393C33.4896 17.6359 36.4498 17.0342 39.5437 17.0342C42.6376 17.0342 45.5977 17.6359 48.424 18.8393C51.1536 20.0015 53.5707 21.642 55.6753 23.7607C57.7801 25.8795 59.4097 28.3127 60.5642 31.0604C61.7596 33.9056 62.3574 36.8855 62.3574 40C62.3574 43.1145 61.7596 46.0944 60.5642 48.9396C59.4097 51.6873 57.7801 54.1205 55.6753 56.2393C53.5706 58.358 51.1535 59.9985 48.424 61.1606C45.5977 62.364 42.6376 62.9657 39.5437 62.9657C36.4498 62.9657 33.4896 62.364 30.6633 61.1606C27.9338 59.9984 25.5167 58.358 23.412 56.2393C21.3072 54.1205 19.6776 51.6873 18.5232 48.9396C17.3277 46.0944 16.73 43.1145 16.73 40C16.73 36.8855 17.3277 33.9056 18.5232 31.0604C19.6776 28.3127 21.3072 25.8795 23.412 23.7607ZM24.6529 54.99C26.5962 56.9464 28.8276 58.4609 31.3469 59.5337C33.9547 60.644 36.687 61.1991 39.5437 61.1991C42.4003 61.1991 45.1326 60.644 47.7404 59.5337C50.2598 58.4609 52.4911 56.9464 54.4345 54.99C56.3779 53.0337 57.8823 50.7876 58.9479 48.2514C60.0509 45.6262 60.6025 42.8757 60.6025 40C60.6025 37.1243 60.0509 34.3738 58.9479 31.7486C57.8823 29.2124 56.3778 26.9662 54.4345 25.0099C52.4911 23.0536 50.2597 21.5391 47.7404 20.4664C45.1326 19.356 42.4003 18.8008 39.5437 18.8008C36.687 18.8008 33.9547 19.356 31.3469 20.4664C28.8276 21.5391 26.5962 23.0536 24.6529 25.0099C22.7095 26.9662 21.205 29.2124 20.1394 31.7486C19.0364 34.3738 18.4849 37.1243 18.4849 40C18.4849 42.8757 19.0364 45.6262 20.1394 48.2514C21.205 50.7876 22.7095 53.0337 24.6529 54.99Z"/>
</mask>
<path fill-rule="evenodd" clip-rule="evenodd" d="M55.3525 33.2794C55.4767 33.3627 55.5594 33.4877 55.6008 33.6126L57.918 45.9426C57.9594 46.1093 57.8767 46.3175 57.7525 46.4009C57.587 46.5258 57.4215 46.5258 57.256 46.4425L53.6146 44.3597C53.4491 44.6513 53.1594 45.0679 52.787 45.5261H53.5732C53.8215 45.5261 54.0284 45.7344 54.0284 45.9843C54.0284 46.2342 53.8215 46.4425 53.5732 46.4425H52.0008C50.3042 48.2754 47.4077 50.4414 43.2283 50.4414C41.3662 50.4414 39.38 49.9832 37.3938 49.1085C37.1869 49.0251 37.1042 48.7752 37.1455 48.5669C37.2283 48.317 37.4352 48.192 37.6421 48.2337C37.6421 48.2337 38.3042 48.317 39.2973 48.317C41.1593 48.317 43.849 47.9838 45.9594 46.4009H21.5868C21.3386 46.4009 21.1317 46.1926 21.1317 45.9427C21.1317 45.6927 21.3386 45.4844 21.5868 45.4844H25.5179V38.9445C25.5179 37.9865 26.2627 37.2367 27.2144 37.2367H30.6076C31.5593 37.2367 32.3041 37.9865 32.3041 38.9445V45.4428H34.1662V32.238C34.1662 31.2799 34.911 30.5301 35.8628 30.5301H39.2559C40.2076 30.5301 40.9524 31.2799 40.9524 32.238V45.4844H42.8145V26.6978C42.8145 25.7398 43.5594 24.99 44.5111 24.99H47.9042C48.8559 24.99 49.6008 25.7398 49.6008 26.6978V36.3202L54.9387 33.2794C55.0629 33.2377 55.2284 33.2377 55.3525 33.2794ZM44.5525 25.8647C44.0973 25.8647 43.7249 26.2396 43.7249 26.6978H43.7663V45.4844H46.9939C47.7801 44.6097 48.4421 43.5266 48.8146 42.0687L45.1732 39.6527C45.049 39.5694 44.9663 39.4444 44.9663 39.2778C44.9663 39.1112 45.049 38.9862 45.1732 38.9029L48.7732 36.8618V26.6978C48.7732 26.2396 48.4008 25.8647 47.9456 25.8647H44.5525ZM35.0766 32.238V45.4428H40.1249V32.238C40.1249 31.7798 39.7524 31.4049 39.2973 31.4049H35.9042C35.449 31.4049 35.0766 31.7798 35.0766 32.238ZM53.3249 43.2767C53.4491 43.235 53.5732 43.2767 53.656 43.3183L56.8422 45.1095L54.856 34.3624L46.2076 39.3194L49.518 41.5272C49.6835 41.6105 49.7663 41.8188 49.7249 41.9854C48.3594 47.6505 43.4352 48.9002 40.4559 49.1085C41.4076 49.3167 42.318 49.4417 43.2283 49.4417C49.7249 49.4417 53.0353 43.5266 53.0766 43.485C53.118 43.4017 53.2008 43.3184 53.3249 43.2767ZM26.3869 38.9445V45.4844H31.4352V38.9445C31.4352 38.4863 31.0627 38.1114 30.6076 38.1114H27.2144C26.7593 38.1114 26.3869 38.4863 26.3869 38.9445ZM23.412 23.7607C25.5167 21.642 27.9338 20.0015 30.6633 18.8393C33.4896 17.6359 36.4498 17.0342 39.5437 17.0342C42.6376 17.0342 45.5977 17.6359 48.424 18.8393C51.1536 20.0015 53.5707 21.642 55.6753 23.7607C57.7801 25.8795 59.4097 28.3127 60.5642 31.0604C61.7596 33.9056 62.3574 36.8855 62.3574 40C62.3574 43.1145 61.7596 46.0944 60.5642 48.9396C59.4097 51.6873 57.7801 54.1205 55.6753 56.2393C53.5706 58.358 51.1535 59.9985 48.424 61.1606C45.5977 62.364 42.6376 62.9657 39.5437 62.9657C36.4498 62.9657 33.4896 62.364 30.6633 61.1606C27.9338 59.9984 25.5167 58.358 23.412 56.2393C21.3072 54.1205 19.6776 51.6873 18.5232 48.9396C17.3277 46.0944 16.73 43.1145 16.73 40C16.73 36.8855 17.3277 33.9056 18.5232 31.0604C19.6776 28.3127 21.3072 25.8795 23.412 23.7607ZM24.6529 54.99C26.5962 56.9464 28.8276 58.4609 31.3469 59.5337C33.9547 60.644 36.687 61.1991 39.5437 61.1991C42.4003 61.1991 45.1326 60.644 47.7404 59.5337C50.2598 58.4609 52.4911 56.9464 54.4345 54.99C56.3779 53.0337 57.8823 50.7876 58.9479 48.2514C60.0509 45.6262 60.6025 42.8757 60.6025 40C60.6025 37.1243 60.0509 34.3738 58.9479 31.7486C57.8823 29.2124 56.3778 26.9662 54.4345 25.0099C52.4911 23.0536 50.2597 21.5391 47.7404 20.4664C45.1326 19.356 42.4003 18.8008 39.5437 18.8008C36.687 18.8008 33.9547 19.356 31.3469 20.4664C28.8276 21.5391 26.5962 23.0536 24.6529 25.0099C22.7095 26.9662 21.205 29.2124 20.1394 31.7486C19.0364 34.3738 18.4849 37.1243 18.4849 40C18.4849 42.8757 19.0364 45.6262 20.1394 48.2514C21.205 50.7876 22.7095 53.0337 24.6529 54.99Z" fill="#00FF2A" stroke="#00FF2A" stroke-width="2" mask="url(#path-1-inside-1_11_547)"/>
<path d="M14.0407 18.7532L14.2101 18.5502L18.9 22.4652L18.7305 22.6681L14.0407 18.7532Z" fill="white" stroke="black"/>
<path d="M20.703 17.6003L20.374 17.9118L20.6516 18.2698L21.8327 19.7925L21.6238 19.9556L17.6614 14.8587L18.2652 14.3933L18.2726 14.3876L18.2798 14.3816L18.4693 14.2239C19.7866 13.1995 21.3073 13.3984 21.8911 14.1461L22.2053 13.9008L21.8911 14.1461C22.1789 14.5146 22.2696 14.9855 22.1022 15.5647C21.9303 16.1595 21.4843 16.8606 20.703 17.6003ZM19.8686 17.267L20.211 17.7084L20.6119 17.3193C21.1446 16.8023 21.5371 16.2789 21.7458 15.7931C21.9468 15.3251 22.0255 14.7608 21.6813 14.32L21.3273 14.5965L21.6813 14.32C21.3321 13.8727 20.751 13.7509 20.2361 13.7925C19.7032 13.8356 19.1271 14.0557 18.6372 14.4383L18.9449 14.8324L18.6372 14.4383L18.6311 14.443C18.5659 14.4939 18.4816 14.5597 18.4009 14.6355L18.069 14.947L18.3479 15.3066L19.8686 17.267Z" fill="white" stroke="black"/>
<path d="M25.7454 12.2065L25.7454 12.2065L25.7448 12.2041C25.2798 10.3664 25.8768 9.22764 26.8485 8.83416L26.6722 8.39862L26.8485 8.83416C27.6193 8.52206 28.6171 8.71967 29.4242 9.40568C29.8801 9.79533 30.2297 10.2957 30.4839 10.9236C30.898 11.9462 30.9651 12.9046 30.778 13.6537C30.5923 14.3973 30.1631 14.9238 29.5666 15.1653C28.4206 15.6293 26.8162 14.9013 25.958 12.7819C25.8913 12.6171 25.8339 12.4745 25.7873 12.323L25.781 12.3022L25.7728 12.2821C25.7543 12.2364 25.7493 12.2224 25.7454 12.2065ZM26.1195 12.4763L26.1195 12.4763L26.2001 12.6753C26.2001 12.6753 26.2001 12.6753 26.2001 12.6753C26.5382 13.5102 27.0275 14.1754 27.5888 14.5873C28.1491 14.9985 28.8325 15.1859 29.4777 14.9246C29.9851 14.7192 30.3227 14.2772 30.4857 13.7346C30.6469 13.1978 30.6469 12.5426 30.4857 11.8216C30.4239 11.5256 30.3332 11.2558 30.2359 11.0154L29.7724 11.2031L30.2359 11.0154C29.6106 9.4713 28.1213 8.60403 26.933 9.08518L27.102 9.5025L26.933 9.08518C26.4285 9.28946 26.1055 9.71184 25.9564 10.234C25.8112 10.7425 25.8248 11.355 25.9696 12.0216C26.0047 12.1931 26.0671 12.3469 26.1139 12.4625C26.1158 12.4672 26.1177 12.4718 26.1195 12.4763Z" fill="white" stroke="black"/>
<path d="M40.4278 6.88858L39.6962 6.85207L39.7093 6.58802L42.7135 6.73793L42.7003 7.00198L41.6906 6.9516L41.1913 6.92668L41.1663 7.42606L40.8867 13.0311L40.6227 13.0162L40.9023 7.41288L40.9272 6.9135L40.4278 6.88858Z" fill="white" stroke="black"/>
<path d="M49.5961 8.50945L48.2129 8.04437L47.7191 7.87832L47.5735 8.37859L46.9868 10.3944L46.8414 10.8942L47.3467 11.0194L47.8029 11.1324L47.739 11.3888L47.2362 11.2634L46.7683 11.1468L46.6348 11.6101L46.1964 13.1307L46.0522 13.6311L46.5581 13.7548L48.0136 14.1107L47.953 14.3607L45.7 13.8096L47.5164 7.53835L49.6808 8.25889L49.5961 8.50945Z" fill="white" stroke="black"/>
<path d="M53.0712 16.4842C53.5414 16.7545 54.1424 16.8787 54.8507 16.8735L54.8711 17.1397C54.0663 17.1422 53.4229 16.9913 52.9395 16.7134C51.8157 16.0676 51.5162 14.5918 52.4077 13.0406C53.3557 11.3912 55.051 10.6499 56.4754 11.3241L56.3221 11.5464C55.6373 11.2413 54.9266 11.2969 54.3017 11.5821C53.6187 11.8938 53.0369 12.4765 52.6409 13.1655C52.285 13.7846 52.1037 14.4301 52.1561 15.0218C52.21 15.6306 52.5135 16.1637 53.0712 16.4842Z" fill="white" stroke="black"/>
<path d="M62.4909 20.2709L64.4065 18.247L64.6014 18.4321L60.4136 22.9142L60.1891 22.7002L61.6193 21.1882L61.9492 20.8394L61.6141 20.4956L59.6547 18.4854L59.3218 18.1439L58.9649 18.4603L57.3332 19.9071L57.1627 19.7137L61.9165 15.4955L62.095 15.6904L59.9141 17.6229L59.5216 17.9707L59.8877 18.3462L61.7698 20.2763L62.1332 20.6489L62.4909 20.2709Z" fill="white" stroke="black"/>
<path d="M18.3419 57.352L18.5113 57.5549L13.8214 61.4699L13.652 61.2669L18.3419 57.352Z" fill="white" stroke="black"/>
<path d="M19.3792 63.7908L18.9972 63.5472L18.7172 63.9033L17.5262 65.4183L17.3174 65.2552L21.3015 60.1753L21.8994 60.6483L21.9068 60.6541L21.9143 60.6596L22.1133 60.8052C23.4265 61.8348 23.6021 63.3584 23.0183 64.106C22.7306 64.4746 22.2957 64.6767 21.6933 64.6548C21.0746 64.6322 20.2862 64.3695 19.3792 63.7908ZM19.5002 62.9006L19.155 63.3398L19.6297 63.6344C20.2604 64.0258 20.8633 64.2797 21.3853 64.3644C21.888 64.446 22.4546 64.3855 22.7988 63.9447C23.148 63.4974 23.1254 62.9041 22.9601 62.4147C22.7892 61.9082 22.4359 61.4026 21.946 61.0201L21.94 61.0154C21.8748 60.9644 21.7905 60.8986 21.6973 60.8386L21.3147 60.5921L21.0334 60.9499L19.5002 62.9006Z" fill="white" stroke="black"/>
<path d="M26.2242 66.3058L26.2242 66.3058L26.2254 66.3036C27.17 64.6602 28.3912 64.2576 29.3629 64.6511C30.1336 64.9632 30.7128 65.7993 30.8152 66.8535C30.8717 67.4506 30.7746 68.0533 30.5203 68.6812C30.1062 69.7039 29.4876 70.439 28.8321 70.8468C28.1813 71.2517 27.5067 71.3312 26.9102 71.0897C25.7642 70.6257 25.1184 68.9864 25.9766 66.8671C26.0433 66.7023 26.1013 66.5599 26.1733 66.4186L26.1831 66.3993L26.1913 66.3792C26.2098 66.3335 26.2159 66.32 26.2242 66.3058ZM26.3052 66.7599L26.3052 66.7599L26.2246 66.9589C26.2246 66.9589 26.2246 66.9589 26.2246 66.9589C25.8865 67.7938 25.7752 68.612 25.8918 69.2984C26.0081 69.9836 26.3686 70.5937 27.0138 70.855C27.5212 71.0604 28.0712 70.9779 28.5658 70.7015C29.055 70.4281 29.5109 69.9576 29.8968 69.3275C30.0584 69.0719 30.1809 68.815 30.2783 68.5746C30.9035 67.0305 30.4372 65.3713 29.2489 64.8902L29.0707 65.3303L29.2489 64.8902C28.7445 64.6859 28.2185 64.7645 27.7482 65.0358C27.2901 65.3 26.8737 65.7495 26.5139 66.3289C26.4198 66.4766 26.3575 66.6305 26.3108 66.7461C26.3089 66.7508 26.307 66.7554 26.3052 66.7599Z" fill="white" stroke="black"/>
<path d="M39.411 67.1305L42.4151 66.9806L42.4283 67.2447L41.4187 67.295L40.9193 67.32L40.9442 67.8193L41.2239 73.4243L40.9598 73.4359L40.6802 67.8325L40.6552 67.3331L40.1559 67.358L39.4242 67.3946L39.411 67.1305Z" fill="white" stroke="black"/>
<path d="M45.8831 66.382L48.1042 65.8623L48.1633 66.1201L46.7414 66.4483L46.2338 66.5655L46.3717 67.0679L46.9278 69.0924L47.0656 69.5944L47.5617 69.4364L48.0095 69.2937L48.0894 69.5456L47.5953 69.7021L47.1357 69.8478L47.2645 70.3124L47.6875 71.8373L47.8268 72.3392L48.3226 72.1796L49.7488 71.7205L49.8281 71.9652L47.6202 72.6756L45.8831 66.382Z" fill="white" stroke="black"/>
<path d="M53.1624 67.438L53.573 67.202L53.1624 67.438C53.5182 68.0572 53.9847 68.5388 54.5223 68.7914C55.0755 69.0512 55.6889 69.0574 56.2466 68.7369C56.7168 68.4666 57.1267 68.0099 57.4788 67.3953L57.719 67.5116C57.316 68.2082 56.8618 68.6882 56.3783 68.9661C55.2546 69.6119 53.8286 69.1278 52.9371 67.5767C51.9891 65.9272 52.202 64.0892 53.5016 63.1978L53.6165 63.4422C53.0082 63.8803 52.6985 64.5223 52.6303 65.2059C52.5559 65.953 52.7664 66.749 53.1624 67.438Z" fill="white" stroke="black"/>
<path d="M62.5817 59.5124L60.4884 57.673L60.6663 57.4714L65.3 61.4907L65.0944 61.723L63.5307 60.3496L63.1699 60.0328L62.8387 60.3804L60.9023 62.4127L60.5733 62.758L60.9027 63.1029L62.4088 64.6801L62.2218 64.8576L57.8308 60.2629L58.019 60.0773L60.0308 62.1853L60.3929 62.5647L60.7546 62.185L62.6137 60.2329L62.9727 59.856L62.5817 59.5124Z" fill="white" stroke="black"/>
<mask id="path-16-inside-2_11_547" fill="white">
<path fill-rule="evenodd" clip-rule="evenodd" d="M13.251 13.251C9.74757 16.7545 7.03509 20.7777 5.11361 25.3206C3.12413 30.0243 2.12939 34.9511 2.12939 40.101C2.12939 45.2509 3.12413 50.1776 5.11361 54.8812C7.0351 59.4242 9.74757 63.4475 13.251 66.951C16.7549 70.4546 20.7781 73.1672 25.3206 75.0885C30.0246 77.0779 34.9514 78.0726 40.101 78.0726C45.2509 78.0726 50.1776 77.0779 54.8812 75.0885C59.4246 73.167 63.448 70.4545 66.9513 66.951C70.4547 63.4471 73.1672 59.4239 75.0885 54.8812C77.0779 50.1776 78.0726 45.2509 78.0726 40.101C78.0726 34.951 77.0779 30.0242 75.0885 25.3206C73.1668 20.7775 70.4544 16.7543 66.9513 13.251C63.4476 9.74749 59.4242 7.03502 54.8812 5.11361C50.1778 3.12413 45.2511 2.12939 40.101 2.12939C34.9511 2.12939 30.0243 3.12413 25.3206 5.11361C20.7777 7.03508 16.7545 9.74755 13.251 13.251ZM2.87847 40.101C2.87847 35.0523 3.85348 30.2228 5.80351 25.6124C7.68704 21.1592 10.3461 17.2153 13.7807 13.7807C17.2153 10.3461 21.1592 7.68703 25.6124 5.80351C30.2228 3.85348 35.0524 2.87847 40.101 2.87847C45.1496 2.87847 49.9792 3.85348 54.5897 5.80351C59.0428 7.68707 62.9867 10.3461 66.4214 13.7807C69.8558 17.2152 72.5148 21.1591 74.3984 25.6124C76.3484 30.2228 77.3234 35.0523 77.3234 40.101C77.3234 45.1496 76.3484 49.9792 74.3984 54.5897C72.515 59.0424 69.856 62.9863 66.4214 66.4211C62.9871 69.8555 59.0432 72.5146 54.5897 74.3984C49.9792 76.3484 45.1496 77.3235 40.101 77.3235C35.0526 77.3235 30.2231 76.3484 25.6124 74.3984C21.1595 72.5152 17.2156 69.8561 13.7807 66.4211C10.3461 62.9866 7.68699 59.0428 5.80351 54.5897C3.85348 49.9794 2.87847 45.1498 2.87847 40.101Z"/>
</mask>
<path fill-rule="evenodd" clip-rule="evenodd" d="M13.251 13.251C9.74757 16.7545 7.03509 20.7777 5.11361 25.3206C3.12413 30.0243 2.12939 34.9511 2.12939 40.101C2.12939 45.2509 3.12413 50.1776 5.11361 54.8812C7.0351 59.4242 9.74757 63.4475 13.251 66.951C16.7549 70.4546 20.7781 73.1672 25.3206 75.0885C30.0246 77.0779 34.9514 78.0726 40.101 78.0726C45.2509 78.0726 50.1776 77.0779 54.8812 75.0885C59.4246 73.167 63.448 70.4545 66.9513 66.951C70.4547 63.4471 73.1672 59.4239 75.0885 54.8812C77.0779 50.1776 78.0726 45.2509 78.0726 40.101C78.0726 34.951 77.0779 30.0242 75.0885 25.3206C73.1668 20.7775 70.4544 16.7543 66.9513 13.251C63.4476 9.74749 59.4242 7.03502 54.8812 5.11361C50.1778 3.12413 45.2511 2.12939 40.101 2.12939C34.9511 2.12939 30.0243 3.12413 25.3206 5.11361C20.7777 7.03508 16.7545 9.74755 13.251 13.251ZM2.87847 40.101C2.87847 35.0523 3.85348 30.2228 5.80351 25.6124C7.68704 21.1592 10.3461 17.2153 13.7807 13.7807C17.2153 10.3461 21.1592 7.68703 25.6124 5.80351C30.2228 3.85348 35.0524 2.87847 40.101 2.87847C45.1496 2.87847 49.9792 3.85348 54.5897 5.80351C59.0428 7.68707 62.9867 10.3461 66.4214 13.7807C69.8558 17.2152 72.5148 21.1591 74.3984 25.6124C76.3484 30.2228 77.3234 35.0523 77.3234 40.101C77.3234 45.1496 76.3484 49.9792 74.3984 54.5897C72.515 59.0424 69.856 62.9863 66.4214 66.4211C62.9871 69.8555 59.0432 72.5146 54.5897 74.3984C49.9792 76.3484 45.1496 77.3235 40.101 77.3235C35.0526 77.3235 30.2231 76.3484 25.6124 74.3984C21.1595 72.5152 17.2156 69.8561 13.7807 66.4211C10.3461 62.9866 7.68699 59.0428 5.80351 54.5897C3.85348 49.9794 2.87847 45.1498 2.87847 40.101Z" fill="white"/>
<path d="M13.251 13.251L12.5439 12.5439L12.5439 12.5439L13.251 13.251ZM5.11361 25.3206L4.19261 24.9311L4.1926 24.9311L5.11361 25.3206ZM5.11361 54.8812L6.03462 54.4917L6.03461 54.4917L5.11361 54.8812ZM13.251 66.951L12.5439 67.6581L12.5439 67.6581L13.251 66.951ZM25.3206 75.0885L24.9311 76.0095L24.9311 76.0095L25.3206 75.0885ZM54.8812 75.0885L54.4917 74.1675L54.4917 74.1675L54.8812 75.0885ZM66.9513 66.951L67.6584 67.6581L67.6584 67.658L66.9513 66.951ZM75.0885 54.8812L76.0095 55.2708L76.0095 55.2708L75.0885 54.8812ZM75.0885 25.3206L76.0095 24.9311L76.0095 24.931L75.0885 25.3206ZM66.9513 13.251L67.6584 12.5439L67.6584 12.5439L66.9513 13.251ZM54.8812 5.11361L54.4917 6.03461L54.4917 6.03462L54.8812 5.11361ZM25.3206 5.11361L24.9311 4.1926L24.9311 4.1926L25.3206 5.11361ZM5.80351 25.6124L4.8825 25.2228L4.8825 25.2228L5.80351 25.6124ZM13.7807 13.7807L13.0736 13.0736L13.0736 13.0736L13.7807 13.7807ZM25.6124 5.80351L25.2228 4.8825L25.2228 4.8825L25.6124 5.80351ZM54.5897 5.80351L54.9792 4.8825L54.9792 4.8825L54.5897 5.80351ZM66.4214 13.7807L67.1285 13.0736L67.1285 13.0736L66.4214 13.7807ZM74.3984 25.6124L73.4773 26.0019L73.4774 26.002L74.3984 25.6124ZM74.3984 54.5897L73.4773 54.2001L73.4773 54.2001L74.3984 54.5897ZM66.4214 66.4211L65.7142 65.714L66.4214 66.4211ZM54.5897 74.3984L54.9792 75.3194L54.9792 75.3194L54.5897 74.3984ZM25.6124 74.3984L26.0019 73.4773L26.0019 73.4773L25.6124 74.3984ZM13.7807 66.4211L14.4878 65.714L14.4878 65.714L13.7807 66.4211ZM5.80351 54.5897L6.72451 54.2001L6.72451 54.2001L5.80351 54.5897ZM12.5439 12.5439C8.9498 16.1381 6.1645 20.269 4.19261 24.9311L6.03461 25.7102C7.90569 21.2864 10.5453 17.3709 13.9581 13.9581L12.5439 12.5439ZM4.1926 24.9311C2.15055 29.759 1.12939 34.8184 1.12939 40.101H3.12939C3.12939 35.0838 4.09772 30.2895 6.03461 25.7102L4.1926 24.9311ZM1.12939 40.101C1.12939 45.3835 2.15055 50.4428 4.19261 55.2708L6.03461 54.4917C4.09772 49.9124 3.12939 45.1182 3.12939 40.101H1.12939ZM4.1926 55.2708C6.1645 59.933 8.94979 64.0639 12.5439 67.6581L13.9581 66.2439C10.5454 62.8311 7.9057 58.9155 6.03462 54.4917L4.1926 55.2708ZM12.5439 67.6581C16.1385 71.2524 20.2693 74.0377 24.9311 76.0095L25.7102 74.1675C21.2868 72.2966 17.3713 69.6569 13.9581 66.2438L12.5439 67.6581ZM24.9311 76.0095C29.7593 78.0515 34.8187 79.0726 40.101 79.0726V77.0726C35.084 77.0726 30.2898 76.1043 25.7101 74.1675L24.9311 76.0095ZM40.101 79.0726C45.3835 79.0726 50.4428 78.0515 55.2708 76.0095L54.4917 74.1675C49.9124 76.1043 45.1182 77.0726 40.101 77.0726V79.0726ZM55.2707 76.0095C59.9333 74.0376 64.0644 71.2522 67.6584 67.6581L66.2441 66.2439C62.8315 69.6567 58.9159 72.2964 54.4917 74.1675L55.2707 76.0095ZM67.6584 67.658C71.2525 64.0635 74.0377 59.9326 76.0095 55.2708L74.1675 54.4917C72.2966 58.9151 69.657 62.8307 66.2441 66.2439L67.6584 67.658ZM76.0095 55.2708C78.0515 50.4428 79.0726 45.3835 79.0726 40.101H77.0726C77.0726 45.1182 76.1043 49.9124 74.1675 54.4917L76.0095 55.2708ZM79.0726 40.101C79.0726 34.8184 78.0515 29.759 76.0095 24.9311L74.1675 25.7101C76.1043 30.2895 77.0726 35.0837 77.0726 40.101H79.0726ZM76.0095 24.931C74.0374 20.2688 71.2521 16.1379 67.6584 12.5439L66.2441 13.9581C69.6566 17.3707 72.2962 21.2862 74.1675 25.7102L76.0095 24.931ZM67.6584 12.5439C64.064 8.94971 59.933 6.16441 55.2708 4.1926L54.4917 6.03462C58.9155 7.90562 62.8312 10.5453 66.2442 13.9582L67.6584 12.5439ZM55.2708 4.19261C50.443 2.15055 45.3837 1.12939 40.101 1.12939V3.12939C45.1184 3.12939 49.9125 4.09772 54.4917 6.03461L55.2708 4.19261ZM40.101 1.12939C34.8184 1.12939 29.7591 2.15055 24.9311 4.1926L25.7102 6.03461C30.2895 4.09772 35.0838 3.12939 40.101 3.12939V1.12939ZM24.9311 4.1926C20.269 6.16449 16.1381 8.94978 12.5439 12.5439L13.9581 13.9581C17.371 10.5453 21.2865 7.90567 25.7102 6.03461L24.9311 4.1926ZM3.87847 40.101C3.87847 35.185 4.82708 30.488 6.72451 26.0019L4.8825 25.2228C2.87989 29.9576 1.87847 34.9197 1.87847 40.101H3.87847ZM6.72451 26.0019C8.55763 21.6679 11.1439 17.8317 14.4878 14.4878L13.0736 13.0736C9.54834 16.5988 6.81645 20.6504 4.8825 25.2228L6.72451 26.0019ZM14.4878 14.4878C17.8318 11.1439 21.668 8.55762 26.0019 6.72451L25.2228 4.8825C20.6505 6.81644 16.5989 9.54832 13.0736 13.0736L14.4878 14.4878ZM26.0019 6.72451C30.488 4.82708 35.185 3.87847 40.101 3.87847V1.87847C34.9197 1.87847 29.9576 2.87989 25.2228 4.8825L26.0019 6.72451ZM40.101 3.87847C45.017 3.87847 49.714 4.82707 54.2001 6.72451L54.9792 4.8825C50.2444 2.87989 45.2823 1.87847 40.101 1.87847V3.87847ZM54.2001 6.72451C58.5341 8.55765 62.3703 11.1439 65.7143 14.4878L67.1285 13.0736C63.6032 9.54836 59.5516 6.81648 54.9792 4.8825L54.2001 6.72451ZM65.7143 14.4878C69.058 17.8316 71.6442 21.6678 73.4773 26.0019L75.3194 25.2228C73.3854 20.6503 70.6536 16.5987 67.1285 13.0736L65.7143 14.4878ZM73.4774 26.002C75.3748 30.488 76.3234 35.185 76.3234 40.101H78.3234C78.3234 34.9197 77.322 29.9575 75.3194 25.2228L73.4774 26.002ZM76.3234 40.101C76.3234 45.017 75.3748 49.7139 73.4773 54.2001L75.3194 54.9792C77.322 50.2444 78.3234 45.2823 78.3234 40.101H76.3234ZM73.4773 54.2001C71.6444 58.5337 69.0582 62.3698 65.7142 65.714L67.1285 67.1282C70.6538 63.6027 73.3856 59.5512 75.3194 54.9792L73.4773 54.2001ZM65.7142 65.714C62.3707 69.0578 58.5345 71.644 54.2001 73.4774L54.9792 75.3194C59.552 73.3852 63.6036 70.6533 67.1285 67.1282L65.7142 65.714ZM54.2001 73.4774C49.714 75.3748 45.017 76.3235 40.101 76.3235V78.3235C45.2823 78.3235 50.2444 77.322 54.9792 75.3194L54.2001 73.4774ZM40.101 76.3235C35.1853 76.3235 30.4883 75.3748 26.0019 73.4773L25.2229 75.3194C29.9579 77.322 34.92 78.3235 40.101 78.3235V76.3235ZM26.0019 73.4773C21.6682 71.6446 17.8321 69.0584 14.4878 65.714L13.0736 67.1282C16.5991 70.6539 20.6507 73.3858 25.2229 75.3194L26.0019 73.4773ZM14.4878 65.714C11.1438 62.3702 8.55758 58.5341 6.72451 54.2001L4.8825 54.9792C6.8164 59.5516 9.54829 63.6031 13.0736 67.1282L14.4878 65.714ZM6.72451 54.2001C4.82708 49.7141 3.87847 45.0172 3.87847 40.101H1.87847C1.87847 45.2825 2.87988 50.2446 4.8825 54.9792L6.72451 54.2001Z" fill="black" mask="url(#path-16-inside-2_11_547)"/>
<circle cx="39.3915" cy="39.6957" r="21.77" stroke="black" stroke-width="3"/>
<circle cx="40" cy="40" r="38.75" stroke="black" stroke-width="2.5"/>
</svg>
