<svg width="120" height="120" viewBox="0 0 120 120" fill="none" xmlns="http://www.w3.org/2000/svg">
<path d="M24.6484 59.9996C24.6484 40.4746 40.4766 24.6465 60.0016 24.6465C79.5266 24.6465 95.3547 40.4746 95.3547 59.9996C95.3547 79.5246 79.5266 95.3528 60.0016 95.3528C40.4766 95.3528 24.6484 79.5246 24.6484 59.9996ZM64.8571 64.9608C66.3364 64.9608 67.5356 63.7616 67.5356 62.2823C67.5356 60.803 66.3364 59.6038 64.8571 59.6038C63.3778 59.6038 62.1786 60.803 62.1786 62.2823C62.1786 63.7616 63.3778 64.9608 64.8571 64.9608ZM58.6503 68.941C60.3295 68.941 61.6908 67.5798 61.6908 65.9006C61.6908 64.2214 60.3295 62.8601 58.6503 62.8601C56.9712 62.8601 55.6099 64.2214 55.6099 65.9006C55.6099 67.5798 56.9712 68.941 58.6503 68.941ZM52.977 67.9338C54.1384 67.9338 55.0799 66.9923 55.0799 65.8309C55.0799 64.6695 54.1384 63.728 52.977 63.728C51.8156 63.728 50.8741 64.6695 50.8741 65.8309C50.8741 66.9923 51.8156 67.9338 52.977 67.9338ZM68.5309 66.6151C69.185 66.6151 69.7152 66.0848 69.7152 65.4308C69.7152 64.7767 69.185 64.2464 68.5309 64.2464C67.8768 64.2464 67.3465 64.7767 67.3465 65.4308C67.3465 66.0848 67.8768 66.6151 68.5309 66.6151ZM54.2743 63.4133C55.0378 63.4133 55.6568 62.7943 55.6568 62.0308C55.6568 61.2673 55.0378 60.6483 54.2743 60.6483C53.5108 60.6483 52.8918 61.2673 52.8918 62.0308C52.8918 62.7943 53.5108 63.4133 54.2743 63.4133ZM50.9029 63.5924C51.5708 63.5924 52.1122 63.0509 52.1122 62.383C52.1122 61.7151 51.5708 61.1737 50.9029 61.1737C50.235 61.1737 49.6936 61.7151 49.6936 62.383C49.6936 63.0509 50.235 63.5924 50.9029 63.5924ZM65.2164 41.7022C66.6884 41.7022 67.8816 40.5089 67.8816 39.0369C67.8816 37.565 66.6884 36.3717 65.2164 36.3717C63.7444 36.3717 62.5511 37.565 62.5511 39.0369C62.5511 40.5089 63.7444 41.7022 65.2164 41.7022ZM53.2875 43.7251C54.7556 43.7251 55.9458 42.5349 55.9458 41.0667C55.9458 39.5986 54.7556 38.4084 53.2875 38.4084C51.8193 38.4084 50.6291 39.5986 50.6291 41.0667C50.6291 42.5349 51.8193 43.7251 53.2875 43.7251ZM61.8057 47.7695C63.433 47.7695 64.7522 46.4503 64.7522 44.823C64.7522 43.1957 63.433 41.8766 61.8057 41.8766C60.1784 41.8766 58.8592 43.1957 58.8592 44.823C58.8592 46.4503 60.1784 47.7695 61.8057 47.7695ZM55.9756 49.3354C57.4363 49.3354 58.6204 48.1513 58.6204 46.6906C58.6204 45.2298 57.4363 44.0457 55.9756 44.0457C54.5149 44.0457 53.3307 45.2298 53.3307 46.6906C53.3307 48.1513 54.5149 49.3354 55.9756 49.3354ZM66.9734 47.6893C67.9675 47.6893 68.7733 46.8835 68.7733 45.8895C68.7733 44.8955 67.9675 44.0897 66.9734 44.0897C65.9794 44.0897 65.1736 44.8955 65.1736 45.8895C65.1736 46.8835 65.9794 47.6893 66.9734 47.6893ZM57.5655 43.1042C58.2147 43.1042 58.7409 42.5779 58.7409 41.9287C58.7409 41.2795 58.2147 40.7532 57.5655 40.7532C56.9162 40.7532 56.39 41.2795 56.39 41.9287C56.39 42.5779 56.9162 43.1042 57.5655 43.1042ZM50.0614 45.7832C50.7167 45.7832 51.248 45.2519 51.248 44.5965C51.248 43.9412 50.7167 43.4099 50.0614 43.4099C49.406 43.4099 48.8747 43.9412 48.8747 44.5965C48.8747 45.2519 49.406 45.7832 50.0614 45.7832ZM61.2606 87.3978C62.7361 87.3978 63.9322 86.2016 63.9322 84.7261C63.9322 83.2506 62.7361 82.0545 61.2606 82.0545C59.7851 82.0545 58.5889 83.2506 58.5889 84.7261C58.5889 86.2016 59.7851 87.3978 61.2606 87.3978ZM61.9157 75.8867C63.0131 75.8867 63.9027 74.9971 63.9027 73.8998C63.9027 72.8024 63.0131 71.9128 61.9157 71.9128C60.8184 71.9128 59.9288 72.8024 59.9288 73.8998C59.9288 74.9971 60.8184 75.8867 61.9157 75.8867ZM65.4586 81.8238C67.2766 81.8238 68.7504 80.3501 68.7504 78.5321C68.7504 76.7141 67.2766 75.2404 65.4586 75.2404C63.6407 75.2404 62.1669 76.7141 62.1669 78.5321C62.1669 80.3501 63.6407 81.8238 65.4586 81.8238ZM66.9367 74.0006C68.471 74.0006 69.7148 72.7568 69.7148 71.2225C69.7148 69.6882 68.471 68.4444 66.9367 68.4444C65.4024 68.4444 64.1586 69.6882 64.1586 71.2225C64.1586 72.7568 65.4024 74.0006 66.9367 74.0006ZM67.6652 85.4264C68.639 85.4264 69.4285 84.6369 69.4285 83.6631C69.4285 82.6893 68.639 81.8999 67.6652 81.8999C66.6914 81.8999 65.902 82.6893 65.902 83.6631C65.902 84.6369 66.6914 85.4264 67.6652 85.4264ZM65.0128 89.741C65.9866 89.741 66.776 88.9516 66.776 87.9778C66.776 87.004 65.9866 86.2146 65.0128 86.2146C64.039 86.2146 63.2496 87.004 63.2496 87.9778C63.2496 88.9516 64.039 89.741 65.0128 89.741ZM62.2923 70.1194C62.9415 70.1194 63.4678 69.5932 63.4678 68.944C63.4678 68.2947 62.9415 67.7685 62.2923 67.7685C61.6431 67.7685 61.1168 68.2947 61.1168 68.944C61.1168 69.5932 61.6431 70.1194 62.2923 70.1194ZM51.9878 80.2013C53.5115 80.2013 54.7467 78.9661 54.7467 77.4424C54.7467 75.9188 53.5115 74.6836 51.9878 74.6836C50.4642 74.6836 49.229 75.9188 49.229 77.4424C49.229 78.9661 50.4642 80.2013 51.9878 80.2013ZM53.014 90.8341C54.9871 90.8341 56.5866 89.2346 56.5866 87.2615C56.5866 85.2884 54.9871 83.6889 53.014 83.6889C51.0409 83.6889 49.4414 85.2884 49.4414 87.2615C49.4414 89.2346 51.0409 90.8341 53.014 90.8341ZM52.1502 74.1559C53.124 74.1559 53.9134 73.3665 53.9134 72.3927C53.9134 71.4189 53.124 70.6295 52.1502 70.6295C51.1764 70.6295 50.3869 71.4189 50.3869 72.3927C50.3869 73.3665 51.1764 74.1559 52.1502 74.1559ZM57.135 74.5974C58.5957 74.5974 59.7798 73.4132 59.7798 71.9525C59.7798 70.4918 58.5957 69.3077 57.135 69.3077C55.6743 69.3077 54.4901 70.4918 54.4901 71.9525C54.4901 73.4132 55.6743 74.5974 57.135 74.5974ZM58.0523 81.9242C59.5692 81.9242 60.7989 80.6945 60.7989 79.1776C60.7989 77.6607 59.5692 76.431 58.0523 76.431C56.5353 76.431 55.3056 77.6607 55.3056 79.1776C55.3056 80.6945 56.5353 81.9242 58.0523 81.9242ZM58.2383 89.1908C58.8875 89.1908 59.4138 88.6646 59.4138 88.0154C59.4138 87.3662 58.8875 86.8399 58.2383 86.8399C57.5891 86.8399 57.0628 87.3662 57.0628 88.0154C57.0628 88.6646 57.5891 89.1908 58.2383 89.1908ZM56.9808 84.6745C57.63 84.6745 58.1563 84.1482 58.1563 83.499C58.1563 82.8498 57.63 82.3235 56.9808 82.3235C56.3316 82.3235 55.8053 82.8498 55.8053 83.499C55.8053 84.1482 56.3316 84.6745 56.9808 84.6745ZM52.6445 54.9735C54.1882 54.9735 55.4396 53.7221 55.4396 52.1784C55.4396 50.6347 54.1882 49.3833 52.6445 49.3833C51.1008 49.3833 49.8494 50.6347 49.8494 52.1784C49.8494 53.7221 51.1008 54.9735 52.6445 54.9735ZM63.4605 55.5585C65.2484 55.5585 66.6978 54.1091 66.6978 52.3212C66.6978 50.5332 65.2484 49.0838 63.4605 49.0838C61.6725 49.0838 60.2231 50.5332 60.2231 52.3212C60.2231 54.1091 61.6725 55.5585 63.4605 55.5585ZM58.0949 55.4272C59.0687 55.4272 59.8582 54.6378 59.8582 53.664C59.8582 52.6901 59.0687 51.9007 58.0949 51.9007C57.1211 51.9007 56.3317 52.6901 56.3317 53.664C56.3317 54.6378 57.1211 55.4272 58.0949 55.4272ZM51.5288 60.6885C52.9895 60.6885 54.1736 59.5044 54.1736 58.0437C54.1736 56.583 52.9895 55.3988 51.5288 55.3988C50.068 55.3988 48.8839 56.583 48.8839 58.0437C48.8839 59.5044 50.068 60.6885 51.5288 60.6885ZM66.0644 59.1408C67.084 59.1408 67.9106 58.3143 67.9106 57.2947C67.9106 56.2751 67.084 55.4485 66.0644 55.4485C65.0448 55.4485 64.2183 56.2751 64.2183 57.2947C64.2183 58.3143 65.0448 59.1408 66.0644 59.1408ZM60.0501 61.5865C61.5108 61.5865 62.6949 60.4024 62.6949 58.9417C62.6949 57.481 61.5108 56.2968 60.0501 56.2968C58.5894 56.2968 57.4052 57.481 57.4052 58.9417C57.4052 60.4024 58.5894 61.5865 60.0501 61.5865ZM68.4684 52.0486C69.157 52.0486 69.7152 51.4904 69.7152 50.8018C69.7152 50.1132 69.157 49.555 68.4684 49.555C67.7798 49.555 67.2216 50.1132 67.2216 50.8018C67.2216 51.4904 67.7798 52.0486 68.4684 52.0486ZM67.6006 33.1518C68.6504 33.1518 69.5014 32.3007 69.5014 31.2509C69.5014 30.2011 68.6504 29.35 67.6006 29.35C66.5507 29.35 65.6997 30.2011 65.6997 31.2509C65.6997 32.3007 66.5507 33.1518 67.6006 33.1518ZM59.6801 31.9819C60.3715 31.9819 60.9319 31.4214 60.9319 30.73C60.9319 30.0386 60.3715 29.4781 59.6801 29.4781C58.9887 29.4781 58.4282 30.0386 58.4282 30.73C58.4282 31.4214 58.9887 31.9819 59.6801 31.9819ZM63.5733 34.1856C64.5471 34.1856 65.3365 33.3962 65.3365 32.4224C65.3365 31.4486 64.5471 30.6592 63.5733 30.6592C62.5995 30.6592 61.8101 31.4486 61.8101 32.4224C61.8101 33.3962 62.5995 34.1856 63.5733 34.1856ZM59.2553 37.7812C60.716 37.7812 61.9001 36.5971 61.9001 35.1364C61.9001 33.6757 60.716 32.4915 59.2553 32.4915C57.7945 32.4915 56.6104 33.6757 56.6104 35.1364C56.6104 36.5971 57.7945 37.7812 59.2553 37.7812ZM53.1789 37.879C54.5382 37.879 55.6402 36.777 55.6402 35.4177C55.6402 34.0584 54.5382 32.9565 53.1789 32.9565C51.8196 32.9565 50.7177 34.0584 50.7177 35.4177C50.7177 36.777 51.8196 37.879 53.1789 37.879ZM54.8396 31.9129C55.596 31.9129 56.2092 31.2997 56.2092 30.5433C56.2092 29.7869 55.596 29.1737 54.8396 29.1737C54.0832 29.1737 53.47 29.7869 53.47 30.5433C53.47 31.2997 54.0832 31.9129 54.8396 31.9129ZM50.4043 33.4835C51.0553 33.4835 51.5831 32.9557 51.5831 32.3046C51.5831 31.6535 51.0553 31.1258 50.4043 31.1258C49.7532 31.1258 49.2254 31.6535 49.2254 32.3046C49.2254 32.9557 49.7532 33.4835 50.4043 33.4835ZM66.233 35.9615C66.8822 35.9615 67.4085 35.4352 67.4085 34.786C67.4085 34.1368 66.8822 33.6105 66.233 33.6105C65.5838 33.6105 65.0575 34.1368 65.0575 34.786C65.0575 35.4352 65.5838 35.9615 66.233 35.9615Z" fill="black"/>
<path d="M30.4491 31.5618L28.8296 33.345L21.125 26.3477L22.7446 24.5645L30.4491 31.5618Z" fill="black"/>
<path d="M34.209 23.8251L36.1688 26.8055L34.1441 28.1369L28.4258 19.4407L31.9556 17.1196C32.9869 16.4415 33.9786 16.1672 34.9308 16.2968C35.8829 16.4264 36.6391 16.9173 37.1994 17.7694C37.7624 18.6255 37.9134 19.5143 37.6524 20.4359C37.3915 21.3574 36.7454 22.1573 35.7141 22.8354L34.209 23.8251ZM33.1879 22.2722L34.693 21.2825C35.131 20.9945 35.3853 20.6548 35.4558 20.2634C35.5264 19.8719 35.4373 19.4871 35.1885 19.1088C34.9346 18.7226 34.6119 18.4813 34.2207 18.385C33.8294 18.2886 33.4147 18.3845 32.9767 18.6725L31.4716 19.6622L33.1879 22.2722Z" fill="black"/>
<path d="M52.0874 15.4059C52.4333 16.6402 52.3274 17.7674 51.7694 18.7874C51.2115 19.8074 50.3016 20.4943 49.0398 20.848C47.7687 21.2043 46.6263 21.0927 45.6127 20.5132C44.599 19.9337 43.9191 19.0268 43.5732 17.7924L43.0677 15.9891C42.723 14.7593 42.8316 13.6327 43.3934 12.6091C43.9553 11.5855 44.8695 10.8962 46.1359 10.5412C47.3932 10.1888 48.529 10.3035 49.5433 10.8853C50.5577 11.467 51.2372 12.3728 51.5819 13.6026L52.0874 15.4059ZM49.2585 14.239C49.0578 13.5231 48.7246 12.9831 48.2587 12.6187C47.7928 12.2544 47.2524 12.1584 46.6375 12.3308C46.0089 12.507 45.5922 12.87 45.3875 13.4198C45.1828 13.9696 45.1814 14.6047 45.3834 15.3252L45.8927 17.1423C46.0959 17.8673 46.4305 18.4119 46.8964 18.7763C47.3622 19.1406 47.9095 19.2346 48.5381 19.0584C49.1484 18.8874 49.5567 18.5255 49.7631 17.9727C49.9695 17.42 49.971 16.7811 49.7678 16.0561L49.2585 14.239Z" fill="black"/>
<path d="M73.6957 12.3736L71.0053 11.829L69.3092 20.2083L66.9341 19.7276L68.6303 11.3483L65.9609 10.8079L66.3297 8.98633L74.0644 10.552L73.6957 12.3736Z" fill="black"/>
<path d="M83.6349 21.2163L80.0227 19.3159L78.8146 21.6123L83.0721 23.8522L82.2068 25.497L75.8047 22.1289L80.6505 12.918L87.0652 16.2927L86.1999 17.9375L81.9297 15.691L80.888 17.6711L84.5003 19.5715L83.6349 21.2163Z" fill="black"/>
<path d="M93.9358 30.9509L93.9162 30.9917C93.0334 31.8349 92.1259 32.2531 91.194 32.2462C90.262 32.2393 89.3356 31.79 88.4147 30.8983C87.4903 30.0032 87.014 28.9915 86.9857 27.8629C86.9574 26.7344 87.3825 25.7165 88.261 24.8092L89.7726 23.2481C90.6478 22.3443 91.6395 21.8767 92.7478 21.8454C93.856 21.8141 94.8552 22.2293 95.7454 23.0912C96.6902 24.0062 97.1822 24.9436 97.2213 25.9034C97.2603 26.8633 96.8881 27.8129 96.1045 28.7523L96.0644 28.7732L94.3748 27.1373C94.8216 26.6279 95.0626 26.1615 95.0979 25.738C95.1332 25.3144 94.9181 24.8773 94.4525 24.4264C94.0588 24.0452 93.5956 23.9035 93.0631 24.0014C92.5305 24.0993 92.0155 24.405 91.5183 24.9185L89.9967 26.4899C89.4962 27.0069 89.215 27.5439 89.1532 28.101C89.0914 28.658 89.2761 29.1454 89.7075 29.5631C90.1252 29.9675 90.5291 30.143 90.9191 30.0896C91.3092 30.0361 91.7516 29.7779 92.2463 29.315L93.9358 30.9509Z" fill="black"/>
<path d="M22.6352 95.5384L21.0156 93.7551L28.7202 86.7578L30.3397 88.5411L22.6352 95.5384Z" fill="black"/>
<path d="M32.3282 99.0375L30.3685 102.018L28.3438 100.686L34.062 91.9902L37.5919 94.3113C38.6231 94.9894 39.2679 95.7913 39.5262 96.7169C39.7846 97.6424 39.6336 98.5312 39.0733 99.3833C38.5103 100.239 37.7541 100.73 36.8046 100.856C35.855 100.982 34.8646 100.705 33.8334 100.027L32.3282 99.0375ZM33.3494 97.4846L34.8545 98.4743C35.2925 98.7623 35.7051 98.8611 36.0925 98.7708C36.4799 98.6804 36.7979 98.4461 37.0466 98.0678C37.3006 97.6816 37.3943 97.2898 37.3277 96.8924C37.2611 96.4949 37.0087 96.1522 36.5707 95.8642L35.0656 94.8745L33.3494 97.4846Z" fill="black"/>
<path d="M51.5434 106.543C51.1974 107.777 50.521 108.685 49.5142 109.266C48.5074 109.848 47.3731 109.962 46.1112 109.608C44.8401 109.252 43.9222 108.563 43.3574 107.541C42.7926 106.519 42.6832 105.391 43.0292 104.156L43.5347 102.353C43.8794 101.123 44.5577 100.217 45.5698 99.6346C46.5818 99.0522 47.721 98.9385 48.9875 99.2934C50.2448 99.6459 51.1555 100.334 51.7197 101.358C52.2838 102.383 52.3936 103.51 52.0489 104.739L51.5434 106.543ZM49.7332 104.075C49.9338 103.36 49.9298 102.725 49.7212 102.172C49.5125 101.618 49.1008 101.255 48.4859 101.083C47.8572 100.907 47.3126 101 46.8519 101.364C46.3913 101.727 46.06 102.269 45.8581 102.989L45.3487 104.806C45.1455 105.531 45.1482 106.171 45.3569 106.724C45.5655 107.277 45.9842 107.642 46.6128 107.818C47.2231 107.989 47.76 107.892 48.2236 107.528C48.6872 107.163 49.0206 106.618 49.2238 105.893L49.7332 104.075Z" fill="black"/>
<path d="M72.4004 101.216L69.71 101.761L71.4062 110.14L69.0311 110.621L67.3349 102.241L64.6656 102.782L64.2969 100.96L72.0316 99.3945L72.4004 101.216Z" fill="black"/>
<path d="M84.4042 100.247L80.7919 102.147L82 104.443L86.2576 102.204L87.1229 103.848L80.7208 107.217L75.875 98.0056L82.2897 94.6309L83.1551 96.2757L78.8849 98.5222L79.9266 100.502L83.5388 98.6019L84.4042 100.247Z" fill="black"/>
<path d="M96.2016 91.3859L96.2417 91.4068C97.0561 92.3163 97.4448 93.2368 97.4079 94.168C97.371 95.0992 96.8921 96.0107 95.9712 96.9025C95.0468 97.7975 94.0202 98.241 92.8914 98.2329C91.7625 98.2249 90.7588 97.7672 89.8803 96.86L88.3687 95.2989C87.4936 94.395 87.0582 93.3888 87.0625 92.2801C87.0669 91.1714 87.5142 90.1861 88.4043 89.3242C89.3492 88.4092 90.3019 87.9477 91.2626 87.9396C92.2232 87.9315 93.1603 88.3341 94.074 89.1476L94.0936 89.1883L92.4041 90.8243C91.9094 90.3613 91.4509 90.1054 91.0288 90.0565C90.6066 90.0075 90.1627 90.2085 89.6971 90.6593C89.3034 91.0406 89.1469 91.4989 89.2276 92.0344C89.3083 92.5698 89.5972 93.0943 90.0945 93.6079L91.6161 95.1793C92.1166 95.6962 92.6443 95.9946 93.1991 96.0743C93.7539 96.154 94.247 95.985 94.6783 95.5673C95.096 95.1629 95.2844 94.7649 95.2435 94.3733C95.2027 93.9817 94.9588 93.5312 94.5121 93.0218L96.2016 91.3859Z" fill="black"/>
<mask id="path-14-inside-1_68_184" fill="white">
<path fill-rule="evenodd" clip-rule="evenodd" d="M17.5736 17.5735C12.0383 23.1088 7.75251 29.4658 4.7162 36.6444C1.57207 44.0779 0 51.8631 0 60C0 68.1368 1.57207 75.9218 4.7162 83.3551C7.75242 90.5339 12.0382 96.891 17.5735 102.426C23.1089 107.962 29.4658 112.247 36.6444 115.283C44.0781 118.428 51.8633 120 60 120C68.1365 120 75.9215 118.428 83.3551 115.283C90.5339 112.247 96.891 107.962 102.426 102.426C107.961 96.8913 112.247 90.5342 115.283 83.3551C118.428 75.9218 120 68.1368 120 60C120 51.8629 118.428 44.0777 115.283 36.6444C112.247 29.4658 107.962 23.1089 102.426 17.5735C96.8913 12.0384 90.5342 7.75259 83.3551 4.7162C75.9218 1.57207 68.1368 0 60 0C51.8633 0 44.0781 1.57207 36.6444 4.7162C29.4658 7.75251 23.1089 12.0383 17.5736 17.5735ZM0.688235 60C0.688235 51.9563 2.24219 44.2605 5.35008 36.9125C8.35153 29.8163 12.5882 23.5322 18.0602 18.0602C23.5322 12.5883 29.8163 8.35154 36.9125 5.35008C44.2604 2.24218 51.9562 0.688239 60 0.688239C68.0437 0.688239 75.7395 2.24219 83.0873 5.35008C90.1833 8.35144 96.4673 12.5882 101.939 18.0602C107.411 23.532 111.648 29.8161 114.65 36.9125C117.758 44.2606 119.311 51.9564 119.311 60C119.311 68.0434 117.758 75.7392 114.65 83.0873C111.648 90.1833 107.411 96.4673 101.939 101.939C96.4679 107.411 90.1839 111.648 83.0873 114.65C75.7395 117.758 68.0437 119.311 60 119.311C51.956 119.311 44.2602 117.758 36.9125 114.65C29.8161 111.648 23.532 107.411 18.0602 101.939C12.5883 96.4676 8.35162 90.1836 5.35008 83.0873C2.24218 75.7395 0.688235 68.0437 0.688235 60Z"/>
</mask>
<path fill-rule="evenodd" clip-rule="evenodd" d="M17.5736 17.5735C12.0383 23.1088 7.75251 29.4658 4.7162 36.6444C1.57207 44.0779 0 51.8631 0 60C0 68.1368 1.57207 75.9218 4.7162 83.3551C7.75242 90.5339 12.0382 96.891 17.5735 102.426C23.1089 107.962 29.4658 112.247 36.6444 115.283C44.0781 118.428 51.8633 120 60 120C68.1365 120 75.9215 118.428 83.3551 115.283C90.5339 112.247 96.891 107.962 102.426 102.426C107.961 96.8913 112.247 90.5342 115.283 83.3551C118.428 75.9218 120 68.1368 120 60C120 51.8629 118.428 44.0777 115.283 36.6444C112.247 29.4658 107.962 23.1089 102.426 17.5735C96.8913 12.0384 90.5342 7.75259 83.3551 4.7162C75.9218 1.57207 68.1368 0 60 0C51.8633 0 44.0781 1.57207 36.6444 4.7162C29.4658 7.75251 23.1089 12.0383 17.5736 17.5735ZM0.688235 60C0.688235 51.9563 2.24219 44.2605 5.35008 36.9125C8.35153 29.8163 12.5882 23.5322 18.0602 18.0602C23.5322 12.5883 29.8163 8.35154 36.9125 5.35008C44.2604 2.24218 51.9562 0.688239 60 0.688239C68.0437 0.688239 75.7395 2.24219 83.0873 5.35008C90.1833 8.35144 96.4673 12.5882 101.939 18.0602C107.411 23.532 111.648 29.8161 114.65 36.9125C117.758 44.2606 119.311 51.9564 119.311 60C119.311 68.0434 117.758 75.7392 114.65 83.0873C111.648 90.1833 107.411 96.4673 101.939 101.939C96.4679 107.411 90.1839 111.648 83.0873 114.65C75.7395 117.758 68.0437 119.311 60 119.311C51.956 119.311 44.2602 117.758 36.9125 114.65C29.8161 111.648 23.532 107.411 18.0602 101.939C12.5883 96.4676 8.35162 90.1836 5.35008 83.0873C2.24218 75.7395 0.688235 68.0437 0.688235 60Z" fill="black"/>
<path d="M17.5736 17.5735L16.8665 16.8664L16.8665 16.8664L17.5736 17.5735ZM4.7162 36.6444L5.63721 37.0339L5.63721 37.0339L4.7162 36.6444ZM4.7162 83.3551L5.63721 82.9656L5.6372 82.9656L4.7162 83.3551ZM17.5735 102.426L16.8664 103.133L16.8664 103.134L17.5735 102.426ZM36.6444 115.283L37.0339 114.362L37.0339 114.362L36.6444 115.283ZM83.3551 115.283L82.9656 114.362L82.9656 114.362L83.3551 115.283ZM102.426 102.426L103.133 103.134L103.134 103.133L102.426 102.426ZM115.283 83.3551L114.362 82.9655L114.362 82.9656L115.283 83.3551ZM115.283 36.6444L114.362 37.0339L114.362 37.034L115.283 36.6444ZM102.426 17.5735L103.134 16.8664L103.134 16.8664L102.426 17.5735ZM83.3551 4.7162L82.9656 5.6372L82.9656 5.63721L83.3551 4.7162ZM36.6444 4.7162L36.2548 3.79519L36.2548 3.7952L36.6444 4.7162ZM5.35008 36.9125L4.42908 36.523L4.42907 36.523L5.35008 36.9125ZM18.0602 18.0602L17.3531 17.3531L17.3531 17.3531L18.0602 18.0602ZM36.9125 5.35008L37.3021 6.27108L37.3021 6.27108L36.9125 5.35008ZM83.0873 5.35008L83.4769 4.42908L83.4769 4.42908L83.0873 5.35008ZM101.939 18.0602L101.232 18.7674L101.232 18.7674L101.939 18.0602ZM114.65 36.9125L115.571 36.523L115.571 36.523L114.65 36.9125ZM114.65 83.0873L115.571 83.4769L115.571 83.4769L114.65 83.0873ZM101.939 101.939L101.232 101.232L101.232 101.232L101.939 101.939ZM83.0873 114.65L83.4769 115.571L83.4769 115.571L83.0873 114.65ZM36.9125 114.65L37.3021 113.729L37.3021 113.729L36.9125 114.65ZM18.0602 101.939L18.7674 101.232L18.7673 101.232L18.0602 101.939ZM5.35008 83.0873L4.42908 83.4769L4.42908 83.4769L5.35008 83.0873ZM16.8665 16.8664C11.2405 22.4924 6.88191 28.957 3.7952 36.2548L5.63721 37.0339C8.62311 29.9745 12.8361 23.7252 18.2807 18.2806L16.8665 16.8664ZM3.7952 36.2548C0.598494 43.8127 -1 51.7304 -1 60H1C1 51.9958 2.54564 44.3432 5.63721 37.0339L3.7952 36.2548ZM-1 60C-1 68.2695 0.598494 76.1871 3.7952 83.7447L5.6372 82.9656C2.54564 75.6566 1 68.0041 1 60H-1ZM3.79519 83.7447C6.88181 91.0426 11.2404 97.5074 16.8664 103.133L18.2806 101.719C12.836 96.2746 8.62303 90.0252 5.63721 82.9656L3.79519 83.7447ZM16.8664 103.134C22.4925 108.759 28.9571 113.118 36.2548 116.204L37.0339 114.362C29.9745 111.377 23.7253 107.164 18.2806 101.719L16.8664 103.134ZM36.2548 116.204C43.8129 119.401 51.7306 121 60 121V119C51.9961 119 44.3434 117.454 37.0339 114.362L36.2548 116.204ZM60 121C68.2692 121 76.1868 119.401 83.7447 116.204L82.9656 114.362C75.6563 117.454 68.0038 119 60 119V121ZM83.7447 116.204C91.0426 113.118 97.5074 108.759 103.133 103.134L101.719 101.719C96.2746 107.164 90.0252 111.377 82.9656 114.362L83.7447 116.204ZM103.134 103.133C108.759 97.5077 113.118 91.0429 116.204 83.7447L114.362 82.9656C111.376 90.0255 107.163 96.2749 101.719 101.719L103.134 103.133ZM116.204 83.7447C119.401 76.1871 121 68.2695 121 60H119C119 68.0041 117.454 75.6565 114.362 82.9655L116.204 83.7447ZM121 60C121 51.7302 119.401 43.8124 116.204 36.2548L114.362 37.034C117.454 44.343 119 51.9956 119 60H121ZM116.204 36.2548C113.118 28.9571 108.759 22.4925 103.134 16.8664L101.719 18.2806C107.164 23.7253 111.377 29.9745 114.362 37.0339L116.204 36.2548ZM103.134 16.8664C97.5077 11.2406 91.0429 6.88198 83.7447 3.79519L82.9656 5.63721C90.0255 8.6232 96.2748 12.8362 101.719 18.2806L103.134 16.8664ZM83.7447 3.7952C76.1871 0.598494 68.2695 -1 60 -1V1C68.0041 1 75.6566 2.54564 82.9656 5.6372L83.7447 3.7952ZM60 -1C51.7305 -1 43.8128 0.598494 36.2548 3.79519L37.0339 5.63721C44.3433 2.54564 51.996 1 60 1V-1ZM36.2548 3.7952C28.9571 6.88191 22.4924 11.2405 16.8665 16.8664L18.2807 18.2806C23.7253 12.8361 29.9745 8.62311 37.0339 5.6372L36.2548 3.7952ZM1.68824 60C1.68824 52.089 3.21576 44.5257 6.27108 37.3021L4.42907 36.523C1.26861 43.9952 -0.311765 51.8236 -0.311765 60H1.68824ZM6.27108 37.3021C9.22213 30.3251 13.386 24.1487 18.7673 18.7674L17.3531 17.3531C11.7905 22.9158 7.48093 29.3076 4.42908 36.523L6.27108 37.3021ZM18.7673 18.7674C24.1487 13.386 30.3251 9.22213 37.3021 6.27108L36.523 4.42908C29.3076 7.48094 22.9158 11.7905 17.3531 17.3531L18.7673 18.7674ZM37.3021 6.27108C44.5256 3.21576 52.0889 1.68824 60 1.68824V-0.311761C51.8235 -0.311761 43.9951 1.2686 36.523 4.42908L37.3021 6.27108ZM60 1.68824C67.911 1.68824 75.4742 3.21576 82.6978 6.27108L83.4769 4.42908C76.0047 1.26861 68.1764 -0.311761 60 -0.311761V1.68824ZM82.6978 6.27108C89.6746 9.22204 95.8509 13.3859 101.232 18.7674L102.647 17.3531C97.0838 11.7904 90.692 7.48085 83.4769 4.42908L82.6978 6.27108ZM101.232 18.7674C106.614 24.1484 110.778 30.3248 113.729 37.3021L115.571 36.523C112.519 29.3074 108.209 22.9156 102.646 17.3531L101.232 18.7674ZM113.729 37.3021C116.784 44.5258 118.311 52.0891 118.311 60H120.311C120.311 51.8237 118.731 43.9953 115.571 36.523L113.729 37.3021ZM118.311 60C118.311 67.9107 116.784 75.4739 113.729 82.6978L115.571 83.4769C118.731 76.0044 120.311 68.1761 120.311 60H118.311ZM113.729 82.6978C110.778 89.6746 106.614 95.8509 101.232 101.232L102.647 102.647C108.209 97.0838 112.519 90.692 115.571 83.4769L113.729 82.6978ZM101.232 101.232C95.8515 106.613 89.6752 110.777 82.6978 113.729L83.4769 115.571C90.6926 112.519 97.0844 108.209 102.647 102.646L101.232 101.232ZM82.6978 113.729C75.4742 116.784 67.911 118.311 60 118.311V120.311C68.1764 120.311 76.0047 118.731 83.4769 115.571L82.6978 113.729ZM60 118.311C52.0887 118.311 44.5254 116.784 37.3021 113.729L36.523 115.571C43.9949 118.731 51.8233 120.311 60 120.311V118.311ZM37.3021 113.729C30.3249 110.778 24.1485 106.614 18.7674 101.232L17.3531 102.646C22.9156 108.209 29.3074 112.519 36.523 115.571L37.3021 113.729ZM18.7673 101.232C13.3861 95.8512 9.22222 89.6749 6.27108 82.6978L4.42908 83.4769C7.48103 90.6923 11.7906 97.084 17.3531 102.647L18.7673 101.232ZM6.27108 82.6978C3.21576 75.4742 1.68824 67.911 1.68824 60H-0.311765C-0.311765 68.1764 1.2686 76.0047 4.42908 83.4769L6.27108 82.6978Z" fill="black" mask="url(#path-14-inside-1_68_184)"/>
<path fill-rule="evenodd" clip-rule="evenodd" d="M18.9604 18.9585C13.6054 24.3135 9.45933 30.463 6.52234 37.4068C3.48141 44.5965 1.96094 52.1271 1.96094 59.9988C1.96094 67.8705 3.48141 75.4012 6.52234 82.5908C9.45927 89.5348 13.6053 95.6843 18.9604 101.039C24.316 106.395 30.4654 110.541 37.4088 113.477C44.599 116.518 52.1297 118.039 60.0008 118.039C67.8728 118.039 75.4034 116.518 82.5928 113.477C89.537 110.54 95.6866 106.394 101.041 101.039C106.397 95.6834 110.543 89.5339 113.479 82.5908C116.52 75.4009 118.041 67.8702 118.041 59.9988C118.041 52.1268 116.52 44.5961 113.479 37.4068C110.542 30.4627 106.396 24.3132 101.041 18.9585C95.6863 13.6034 89.5367 9.45737 82.5928 6.52038C75.4031 3.47945 67.8725 1.95898 60.0008 1.95898C52.1291 1.95898 44.5984 3.47945 37.4088 6.52038C30.465 9.45734 24.3155 13.6034 18.9604 18.9585ZM3.16542 59.9988C3.16542 52.29 4.65416 44.9157 7.63164 37.8761C10.5076 31.0764 14.5678 25.0544 19.8121 19.8101C25.0564 14.5658 31.0784 10.5056 37.878 7.62967C44.9177 4.6522 52.2919 3.16346 60.0008 3.16346C67.7098 3.16346 75.0841 4.65219 82.1235 7.62967C88.9231 10.5056 94.945 14.5658 100.189 19.8101C105.434 25.0543 109.494 31.0762 112.37 37.8761C115.347 44.9156 116.836 52.2899 116.836 59.9988C116.836 67.7076 115.347 75.0818 112.37 82.1215C109.494 88.9205 105.434 94.9425 100.189 100.187C94.9453 105.431 88.9234 109.492 82.1235 112.368C75.0841 115.346 67.7098 116.834 60.0008 116.834C52.2923 116.834 44.9181 115.346 37.878 112.368C31.0788 109.492 25.0569 105.432 19.8121 100.187C14.5678 94.9431 10.5076 88.9211 7.63164 82.1215C4.65417 75.0815 3.16542 67.7073 3.16542 59.9988Z" fill="black"/>
</svg>
